<?xml version="1.0" encoding="UTF-8"?>
<svg id="Ebene_1" xmlns="http://www.w3.org/2000/svg" viewBox="0 0 1872.83 1020.19">
  <defs>
    <style>
      .cls-1 {
        fill: none;
        stroke: #000;
        stroke-miterlimit: 10;
        stroke-width: 2px;
      }
    </style>
  </defs>
  <g id="Ebene_1-2" data-name="Ebene_1">
    <path class="cls-1" d="M63.86,62.05v11.75c0,10.37-.03,20.73.02,31.1.02,3.97,1.85,6.38,5.01,6.53,3.5.16,5.46-1.74,5.99-5.16.38-2.48,1.66-4.26,4.29-3.81,2.82.48,3.4,2.74,3.03,5.31-.93,6.5-7,11.53-13.53,11.17-6.7-.37-12.12-5.91-12.19-12.96-.14-13.18-.05-26.36-.06-39.55v-4.52c-5.85.4-10.81,2.15-15.13,5.47-2.27,1.74-4.12,2.01-6.49.15-8.1-6.36-17.02-6.94-26.45-3.41-5.79,2.16-7.51.91-7.34-5.23C1.65,36.65,18.85,15.5,41.76,8.99c4.65-1.32,9.45-2.12,13.54-3.83,1.67-1.5,3.28-4.05,5.03-4.16,1.44-.09,3.06,2.74,4.27,4.68,9.99,1.44,19.77,4.24,28.51,9.93,15.93,10.36,25.1,24.85,26.15,44.04.28,5.1-1.87,6.55-6.62,4.7-9.79-3.81-19.04-3.31-27.51,3.36-2.08,1.64-3.81,1.38-5.86-.12-5.07-3.72-9.18-5.16-15.43-5.58l.02.04ZM41.83,58.06c12.37-5.02,24.32-4.94,36.66-.04-.31-3.66-.43-6.59-.82-9.48-1.38-10.22-3.18-20.44-9.93-28.65-6.48-7.87-8.75-8.13-15.11-.09-8.65,10.95-9.85,24.29-10.8,38.26ZM111.02,55.4c-.06-16.43-19.83-37.92-36.68-39.41,8.71,12.64,10.4,27.09,11.64,41.56,4.38-.98,8.28-2.3,12.26-2.63,4.14-.34,8.36.27,12.77.48h0ZM46.14,15.66C26.96,19.48,7.76,40.84,9.5,55.88c8.29-2.08,16.42-1.55,24.68,2.29,1.33-14.96,2.96-29.44,11.96-42.51Z"/>
    <path class="cls-1" d="M382.5,62.05v11.75c0,10.37-.03,20.73.02,31.1.02,3.97,1.85,6.38,5.01,6.53,3.5.16,5.46-1.74,5.99-5.16.38-2.48,1.66-4.26,4.29-3.81,2.82.48,3.4,2.74,3.03,5.31-.93,6.5-7,11.53-13.53,11.17-6.7-.37-12.12-5.91-12.19-12.96-.14-13.18-.05-26.36-.06-39.55v-4.52c-5.85.4-10.81,2.15-15.13,5.47-2.27,1.74-4.12,2.01-6.49.15-8.1-6.36-17.02-6.94-26.45-3.41-5.79,2.16-7.51.91-7.34-5.23.64-22.24,17.84-43.39,40.75-49.9,4.65-1.32,9.45-2.12,13.54-3.83,1.67-1.5,3.28-4.05,5.03-4.16,1.44-.09,3.06,2.74,4.27,4.68,9.99,1.44,19.77,4.24,28.51,9.93,15.93,10.36,25.1,24.85,26.15,44.04.28,5.1-1.87,6.55-6.62,4.7-9.79-3.81-19.04-3.31-27.51,3.36-2.08,1.64-3.81,1.38-5.86-.12-5.07-3.72-9.18-5.16-15.43-5.58l.02.04ZM360.47,58.06c12.37-5.02,24.32-4.94,36.66-.04-.31-3.66-.43-6.59-.82-9.48-1.38-10.22-3.18-20.44-9.93-28.65-6.48-7.87-8.75-8.13-15.11-.09-8.65,10.95-9.85,24.29-10.8,38.26h0ZM429.66,55.4c-.06-16.43-19.83-37.92-36.68-39.41,8.71,12.64,10.4,27.09,11.64,41.56,4.38-.98,8.28-2.3,12.26-2.63,4.14-.34,8.36.27,12.77.48h0ZM364.78,15.66c-19.18,3.82-38.38,25.18-36.64,40.22,8.29-2.08,16.42-1.55,24.68,2.29,1.33-14.96,2.96-29.44,11.96-42.51Z"/>
    <path class="cls-1" d="M701.15,62.05v11.75c0,10.37-.03,20.73.02,31.1.02,3.97,1.85,6.38,5.01,6.53,3.5.16,5.46-1.74,5.99-5.16.38-2.48,1.66-4.26,4.29-3.81,2.82.48,3.4,2.74,3.03,5.31-.93,6.5-7,11.53-13.53,11.17-6.7-.37-12.12-5.91-12.19-12.96-.14-13.18-.05-26.36-.06-39.55v-4.52c-5.85.4-10.81,2.15-15.13,5.47-2.27,1.74-4.12,2.01-6.49.15-8.1-6.36-17.02-6.94-26.45-3.41-5.79,2.16-7.51.91-7.34-5.23.64-22.24,17.84-43.39,40.75-49.9,4.65-1.32,9.45-2.12,13.54-3.83,1.67-1.5,3.28-4.05,5.03-4.16,1.44-.09,3.06,2.74,4.27,4.68,9.99,1.44,19.77,4.24,28.51,9.93,15.93,10.36,25.1,24.85,26.15,44.04.28,5.1-1.87,6.55-6.62,4.7-9.79-3.81-19.04-3.31-27.51,3.36-2.08,1.64-3.81,1.38-5.86-.12-5.07-3.72-9.18-5.16-15.43-5.58l.02.04ZM679.11,58.06c12.37-5.02,24.32-4.94,36.66-.04-.31-3.66-.43-6.59-.82-9.48-1.38-10.22-3.18-20.44-9.93-28.65-6.48-7.87-8.75-8.13-15.11-.09-8.65,10.95-9.85,24.29-10.8,38.26ZM748.31,55.4c-.06-16.43-19.83-37.92-36.68-39.41,8.71,12.64,10.4,27.09,11.64,41.56,4.38-.98,8.28-2.3,12.26-2.63,4.14-.34,8.36.27,12.77.48h0ZM683.42,15.66c-19.18,3.82-38.38,25.18-36.64,40.22,8.29-2.08,16.42-1.55,24.68,2.29,1.33-14.96,2.96-29.44,11.96-42.51Z"/>
    <path class="cls-1" d="M1808.97,57.94v-11.75c0-10.37.03-20.73-.02-31.1-.02-3.97-1.85-6.38-5.01-6.53-3.5-.16-5.46,1.74-5.99,5.16-.38,2.48-1.66,4.26-4.29,3.81-2.82-.48-3.4-2.74-3.03-5.31.93-6.5,7-11.53,13.53-11.17,6.7.37,12.12,5.91,12.19,12.96.14,13.18.05,26.36.06,39.55v4.52c5.85-.4,10.81-2.15,15.13-5.47,2.27-1.74,4.12-2.01,6.49-.15,8.1,6.36,17.02,6.94,26.45,3.41,5.79-2.16,7.51-.91,7.34,5.23-.64,22.24-17.84,43.39-40.75,49.9-4.65,1.32-9.45,2.12-13.54,3.83-1.67,1.5-3.28,4.05-5.03,4.16-1.44.09-3.06-2.74-4.27-4.68-9.99-1.44-19.77-4.24-28.51-9.93-15.93-10.36-25.1-24.85-26.15-44.04-.28-5.1,1.87-6.55,6.62-4.7,9.79,3.81,19.04,3.31,27.51-3.36,2.08-1.64,3.81-1.38,5.86.12,5.07,3.72,9.18,5.16,15.43,5.58l-.02-.04ZM1831.01,61.93c-12.37,5.02-24.32,4.94-36.66.04.31,3.66.43,6.59.82,9.48,1.38,10.22,3.18,20.44,9.93,28.65,6.48,7.87,8.75,8.13,15.11.09,8.65-10.95,9.85-24.29,10.8-38.26ZM1761.81,64.59c.06,16.43,19.83,37.92,36.68,39.41-8.71-12.64-10.4-27.09-11.64-41.56-4.38.98-8.28,2.3-12.26,2.63-4.14.34-8.36-.27-12.77-.48h-.01ZM1826.69,104.33c19.18-3.82,38.38-25.18,36.64-40.22-8.29,2.08-16.42,1.55-24.68-2.29-1.33,14.96-2.96,29.44-11.96,42.51Z"/>
    <path class="cls-1" d="M1019.79,62.05v11.75c0,10.37-.03,20.73.02,31.1.02,3.97,1.85,6.38,5.01,6.53,3.5.16,5.46-1.74,5.99-5.16.38-2.48,1.66-4.26,4.29-3.81,2.82.48,3.4,2.74,3.03,5.31-.93,6.5-7,11.53-13.53,11.17-6.7-.37-12.12-5.91-12.19-12.96-.14-13.18-.05-26.36-.06-39.55v-4.52c-5.85.4-10.81,2.15-15.13,5.47-2.27,1.74-4.12,2.01-6.49.15-8.1-6.36-17.02-6.94-26.45-3.41-5.79,2.16-7.51.91-7.34-5.23.64-22.24,17.84-43.39,40.75-49.9,4.65-1.32,9.45-2.12,13.54-3.83,1.67-1.5,3.28-4.05,5.03-4.16,1.44-.09,3.06,2.74,4.27,4.68,9.99,1.44,19.77,4.24,28.51,9.93,15.93,10.36,25.1,24.85,26.15,44.04.28,5.1-1.87,6.55-6.62,4.7-9.79-3.81-19.04-3.31-27.51,3.36-2.08,1.64-3.81,1.38-5.86-.12-5.07-3.72-9.18-5.16-15.43-5.58l.02.04ZM997.75,58.06c12.37-5.02,24.32-4.94,36.66-.04-.31-3.66-.43-6.59-.82-9.48-1.38-10.22-3.18-20.44-9.93-28.65-6.48-7.87-8.75-8.13-15.11-.09-8.65,10.95-9.85,24.29-10.8,38.26h0ZM1066.95,55.4c-.06-16.43-19.83-37.92-36.68-39.41,8.71,12.64,10.4,27.09,11.64,41.56,4.38-.98,8.28-2.3,12.26-2.63,4.14-.34,8.36.27,12.77.48h.01ZM1002.07,15.66c-19.18,3.82-38.38,25.18-36.64,40.22,8.29-2.08,16.42-1.55,24.68,2.29,1.33-14.96,2.96-29.44,11.96-42.51Z"/>
    <path class="cls-1" d="M1490.33,57.94v-11.75c0-10.37.03-20.73-.02-31.1-.02-3.97-1.85-6.38-5.01-6.53-3.5-.16-5.46,1.74-5.99,5.16-.38,2.48-1.66,4.26-4.29,3.81-2.82-.48-3.4-2.74-3.03-5.31.93-6.5,7-11.53,13.53-11.17,6.7.37,12.12,5.91,12.19,12.96.14,13.18.05,26.36.06,39.55v4.52c5.85-.4,10.81-2.15,15.13-5.47,2.27-1.74,4.12-2.01,6.49-.15,8.1,6.36,17.02,6.94,26.45,3.41,5.79-2.16,7.51-.91,7.34,5.23-.64,22.24-17.84,43.39-40.75,49.9-4.65,1.32-9.45,2.12-13.54,3.83-1.67,1.5-3.28,4.05-5.03,4.16-1.44.09-3.06-2.74-4.27-4.68-9.99-1.44-19.77-4.24-28.51-9.93-15.93-10.36-25.1-24.85-26.15-44.04-.28-5.1,1.87-6.55,6.62-4.7,9.79,3.81,19.04,3.31,27.51-3.36,2.08-1.64,3.81-1.38,5.86.12,5.07,3.72,9.18,5.16,15.43,5.58l-.02-.04ZM1512.36,61.93c-12.37,5.02-24.32,4.94-36.66.04.31,3.66.43,6.59.82,9.48,1.38,10.22,3.18,20.44,9.93,28.65,6.48,7.87,8.75,8.13,15.11.09,8.65-10.95,9.85-24.29,10.8-38.26ZM1443.17,64.59c.06,16.43,19.83,37.92,36.68,39.41-8.71-12.64-10.4-27.09-11.64-41.56-4.38.98-8.28,2.3-12.26,2.63-4.14.34-8.36-.27-12.77-.48h-.01ZM1508.05,104.33c19.18-3.82,38.38-25.18,36.64-40.22-8.29,2.08-16.42,1.55-24.68-2.29-1.33,14.96-2.96,29.44-11.96,42.51Z"/>
    <path class="cls-1" d="M1338.43,62.05v11.75c0,10.37-.03,20.73.02,31.1.02,3.97,1.85,6.38,5.01,6.53,3.5.16,5.46-1.74,5.99-5.16.38-2.48,1.66-4.26,4.29-3.81,2.82.48,3.4,2.74,3.03,5.31-.93,6.5-7,11.53-13.53,11.17-6.7-.37-12.12-5.91-12.19-12.96-.14-13.18-.05-26.36-.06-39.55v-4.52c-5.85.4-10.81,2.15-15.13,5.47-2.27,1.74-4.12,2.01-6.49.15-8.1-6.36-17.02-6.94-26.45-3.41-5.79,2.16-7.51.91-7.34-5.23.64-22.24,17.84-43.39,40.75-49.9,4.65-1.32,9.45-2.12,13.54-3.83,1.67-1.5,3.28-4.05,5.03-4.16,1.44-.09,3.06,2.74,4.27,4.68,9.99,1.44,19.77,4.24,28.51,9.93,15.93,10.36,25.1,24.85,26.15,44.04.28,5.1-1.87,6.55-6.62,4.7-9.79-3.81-19.04-3.31-27.51,3.36-2.08,1.64-3.81,1.38-5.86-.12-5.07-3.72-9.18-5.16-15.43-5.58l.02.04ZM1316.4,58.06c12.37-5.02,24.32-4.94,36.66-.04-.31-3.66-.43-6.59-.82-9.48-1.38-10.22-3.18-20.44-9.93-28.65-6.48-7.87-8.75-8.13-15.11-.09-8.65,10.95-9.85,24.29-10.8,38.26ZM1385.59,55.4c-.06-16.43-19.83-37.92-36.68-39.41,8.71,12.64,10.4,27.09,11.64,41.56,4.38-.98,8.28-2.3,12.26-2.63,4.14-.34,8.36.27,12.77.48h.01ZM1320.71,15.66c-19.18,3.82-38.38,25.18-36.64,40.22,8.29-2.08,16.42-1.55,24.68,2.29,1.33-14.96,2.96-29.44,11.96-42.51Z"/>
    <path class="cls-1" d="M1171.69,57.94v-11.75c0-10.37.03-20.73-.02-31.1-.02-3.97-1.85-6.38-5.01-6.53-3.5-.16-5.46,1.74-5.99,5.16-.38,2.48-1.66,4.26-4.29,3.81-2.82-.48-3.4-2.74-3.03-5.31.93-6.5,7-11.53,13.53-11.17,6.7.37,12.12,5.91,12.19,12.96.14,13.18.05,26.36.06,39.55v4.52c5.85-.4,10.81-2.15,15.13-5.47,2.27-1.74,4.12-2.01,6.49-.15,8.1,6.36,17.02,6.94,26.45,3.41,5.79-2.16,7.51-.91,7.34,5.23-.64,22.24-17.84,43.39-40.75,49.9-4.65,1.32-9.45,2.12-13.54,3.83-1.67,1.5-3.28,4.05-5.03,4.16-1.44.09-3.06-2.74-4.27-4.68-9.99-1.44-19.77-4.24-28.51-9.93-15.93-10.36-25.1-24.85-26.15-44.04-.28-5.1,1.87-6.55,6.62-4.7,9.79,3.81,19.04,3.31,27.51-3.36,2.08-1.64,3.81-1.38,5.86.12,5.07,3.72,9.18,5.16,15.43,5.58l-.02-.04ZM1193.72,61.93c-12.37,5.02-24.32,4.94-36.66.04.31,3.66.43,6.59.82,9.48,1.38,10.22,3.18,20.44,9.93,28.65,6.48,7.87,8.75,8.13,15.11.09,8.65-10.95,9.85-24.29,10.8-38.26ZM1124.52,64.59c.06,16.43,19.83,37.92,36.68,39.41-8.71-12.64-10.4-27.09-11.64-41.56-4.38.98-8.28,2.3-12.26,2.63-4.14.34-8.36-.27-12.77-.48h-.01ZM1189.41,104.33c19.18-3.82,38.38-25.18,36.64-40.22-8.29,2.08-16.42,1.55-24.68-2.29-1.33,14.96-2.96,29.44-11.96,42.51Z"/>
    <path class="cls-1" d="M1657.07,62.05v11.75c0,10.37-.03,20.73.02,31.1.02,3.97,1.85,6.38,5.01,6.53,3.5.16,5.46-1.74,5.99-5.16.38-2.48,1.66-4.26,4.29-3.81,2.82.48,3.4,2.74,3.03,5.31-.93,6.5-7,11.53-13.53,11.17-6.7-.37-12.12-5.91-12.19-12.96-.14-13.18-.05-26.36-.06-39.55v-4.52c-5.85.4-10.81,2.15-15.13,5.47-2.27,1.74-4.12,2.01-6.49.15-8.1-6.36-17.02-6.94-26.45-3.41-5.79,2.16-7.51.91-7.34-5.23.64-22.24,17.84-43.39,40.75-49.9,4.65-1.32,9.45-2.12,13.54-3.83,1.67-1.5,3.28-4.05,5.03-4.16,1.44-.09,3.06,2.74,4.27,4.68,9.99,1.44,19.77,4.24,28.51,9.93,15.93,10.36,25.1,24.85,26.15,44.04.28,5.1-1.87,6.55-6.62,4.7-9.79-3.81-19.04-3.31-27.51,3.36-2.08,1.64-3.81,1.38-5.86-.12-5.07-3.72-9.18-5.16-15.43-5.58l.02.04ZM1635.04,58.06c12.37-5.02,24.32-4.94,36.66-.04-.31-3.66-.43-6.59-.82-9.48-1.38-10.22-3.18-20.44-9.93-28.65-6.48-7.87-8.75-8.13-15.11-.09-8.65,10.95-9.85,24.29-10.8,38.26ZM1704.24,55.4c-.06-16.43-19.83-37.92-36.68-39.41,8.71,12.64,10.4,27.09,11.64,41.56,4.38-.98,8.28-2.3,12.26-2.63,4.14-.34,8.36.27,12.77.48h.01ZM1639.35,15.66c-19.18,3.82-38.38,25.18-36.64,40.22,8.29-2.08,16.42-1.55,24.68,2.29,1.33-14.96,2.96-29.44,11.96-42.51Z"/>
    <path class="cls-1" d="M853.04,57.94v-11.75c0-10.37.03-20.73-.02-31.1-.02-3.97-1.85-6.38-5.01-6.53-3.5-.16-5.46,1.74-5.99,5.16-.38,2.48-1.66,4.26-4.29,3.81-2.82-.48-3.4-2.74-3.03-5.31.93-6.5,7-11.53,13.53-11.17,6.7.37,12.12,5.91,12.19,12.96.14,13.18.05,26.36.06,39.55v4.52c5.85-.4,10.81-2.15,15.13-5.47,2.27-1.74,4.12-2.01,6.49-.15,8.1,6.36,17.02,6.94,26.45,3.41,5.79-2.16,7.51-.91,7.34,5.23-.64,22.24-17.84,43.39-40.75,49.9-4.65,1.32-9.45,2.12-13.54,3.83-1.67,1.5-3.28,4.05-5.03,4.16-1.44.09-3.06-2.74-4.27-4.68-9.99-1.44-19.77-4.24-28.51-9.93-15.93-10.36-25.1-24.85-26.15-44.04-.28-5.1,1.87-6.55,6.62-4.7,9.79,3.81,19.04,3.31,27.51-3.36,2.08-1.64,3.81-1.38,5.86.12,5.07,3.72,9.18,5.16,15.43,5.58l-.02-.04ZM875.08,61.93c-12.37,5.02-24.32,4.94-36.66.04.31,3.66.43,6.59.82,9.48,1.38,10.22,3.18,20.44,9.93,28.65,6.48,7.87,8.75,8.13,15.11.09,8.65-10.95,9.85-24.29,10.8-38.26ZM805.88,64.59c.06,16.43,19.83,37.92,36.68,39.41-8.71-12.64-10.4-27.09-11.64-41.56-4.38.98-8.28,2.3-12.26,2.63-4.14.34-8.36-.27-12.77-.48h0ZM870.76,104.33c19.18-3.82,38.38-25.18,36.64-40.22-8.29,2.08-16.42,1.55-24.68-2.29-1.33,14.96-2.96,29.44-11.96,42.51Z"/>
    <path class="cls-1" d="M534.4,57.94v-11.75c0-10.37.03-20.73-.02-31.1-.02-3.97-1.85-6.38-5.01-6.53-3.5-.16-5.46,1.74-5.99,5.16-.38,2.48-1.66,4.26-4.29,3.81-2.82-.48-3.4-2.74-3.03-5.31.93-6.5,7-11.53,13.53-11.17,6.7.37,12.12,5.91,12.19,12.96.14,13.18.05,26.36.06,39.55v4.52c5.85-.4,10.81-2.15,15.13-5.47,2.27-1.74,4.12-2.01,6.49-.15,8.1,6.36,17.02,6.94,26.45,3.41,5.79-2.16,7.51-.91,7.34,5.23-.64,22.24-17.84,43.39-40.75,49.9-4.65,1.32-9.45,2.12-13.54,3.83-1.67,1.5-3.28,4.05-5.03,4.16-1.44.09-3.06-2.74-4.27-4.68-9.99-1.44-19.77-4.24-28.51-9.93-15.93-10.36-25.1-24.85-26.15-44.04-.28-5.1,1.87-6.55,6.62-4.7,9.79,3.81,19.04,3.31,27.51-3.36,2.08-1.64,3.81-1.38,5.86.12,5.07,3.72,9.18,5.16,15.43,5.58l-.02-.04ZM556.43,61.93c-12.37,5.02-24.32,4.94-36.66.04.31,3.66.43,6.59.82,9.48,1.38,10.22,3.18,20.44,9.93,28.65,6.48,7.87,8.75,8.13,15.11.09,8.65-10.95,9.85-24.29,10.8-38.26ZM487.24,64.59c.06,16.43,19.83,37.92,36.68,39.41-8.71-12.64-10.4-27.09-11.64-41.56-4.38.98-8.28,2.3-12.26,2.63-4.14.34-8.36-.27-12.77-.48h-.01ZM552.12,104.33c19.18-3.82,38.38-25.18,36.64-40.22-8.29,2.08-16.42,1.55-24.68-2.29-1.33,14.96-2.96,29.44-11.96,42.51Z"/>
    <path class="cls-1" d="M215.76,57.94v-11.75c0-10.37.03-20.73-.02-31.1-.02-3.97-1.85-6.38-5.01-6.53-3.5-.16-5.46,1.74-5.99,5.16-.38,2.48-1.66,4.26-4.29,3.81-2.82-.48-3.4-2.74-3.03-5.31.93-6.5,7-11.53,13.53-11.17,6.7.37,12.12,5.91,12.19,12.96.14,13.18.05,26.36.06,39.55v4.52c5.85-.4,10.81-2.15,15.13-5.47,2.27-1.74,4.12-2.01,6.49-.15,8.1,6.36,17.02,6.94,26.45,3.41,5.79-2.16,7.51-.91,7.34,5.23-.64,22.24-17.84,43.39-40.75,49.9-4.65,1.32-9.45,2.12-13.54,3.83-1.67,1.5-3.28,4.05-5.03,4.16-1.44.09-3.06-2.74-4.27-4.68-9.99-1.44-19.77-4.24-28.51-9.93-15.93-10.36-25.1-24.85-26.15-44.04-.28-5.1,1.87-6.55,6.62-4.7,9.79,3.81,19.04,3.31,27.51-3.36,2.08-1.64,3.81-1.38,5.86.12,5.07,3.72,9.18,5.16,15.43,5.58l-.02-.04ZM237.79,61.93c-12.37,5.02-24.32,4.94-36.66.04.31,3.66.43,6.59.82,9.48,1.38,10.22,3.18,20.44,9.93,28.65,6.48,7.87,8.75,8.13,15.11.09,8.65-10.95,9.85-24.29,10.8-38.26ZM168.6,64.59c.06,16.43,19.83,37.92,36.68,39.41-8.71-12.64-10.4-27.09-11.64-41.56-4.38.98-8.28,2.3-12.26,2.63-4.14.34-8.36-.27-12.77-.48h0ZM233.48,104.33c19.18-3.82,38.38-25.18,36.64-40.22-8.29,2.08-16.42,1.55-24.68-2.29-1.33,14.96-2.96,29.44-11.96,42.51Z"/>
    <path class="cls-1" d="M63.86,212.08v11.75c0,10.37-.03,20.73.02,31.1.02,3.97,1.85,6.38,5.01,6.53,3.5.16,5.46-1.74,5.99-5.16.38-2.48,1.66-4.26,4.29-3.81,2.82.48,3.4,2.74,3.03,5.31-.93,6.5-7,11.53-13.53,11.17-6.7-.37-12.12-5.91-12.19-12.96-.14-13.18-.05-26.36-.06-39.55v-4.52c-5.85.4-10.81,2.15-15.13,5.47-2.27,1.74-4.12,2.01-6.49.15-8.1-6.36-17.02-6.94-26.45-3.41-5.79,2.16-7.51.91-7.34-5.23.64-22.24,17.84-43.39,40.75-49.9,4.65-1.32,9.45-2.12,13.54-3.83,1.67-1.5,3.28-4.05,5.03-4.16,1.44-.09,3.06,2.74,4.27,4.68,9.99,1.44,19.77,4.24,28.51,9.93,15.93,10.36,25.1,24.85,26.15,44.04.28,5.1-1.87,6.55-6.62,4.7-9.79-3.81-19.04-3.31-27.51,3.36-2.08,1.64-3.81,1.38-5.86-.12-5.07-3.72-9.18-5.16-15.43-5.58l.02.04ZM41.83,208.09c12.37-5.02,24.32-4.94,36.66-.04-.31-3.66-.43-6.59-.82-9.48-1.38-10.22-3.18-20.44-9.93-28.65-6.48-7.87-8.75-8.13-15.11-.09-8.65,10.95-9.85,24.29-10.8,38.26h0ZM111.02,205.43c-.06-16.43-19.83-37.92-36.68-39.41,8.71,12.64,10.4,27.09,11.64,41.56,4.38-.98,8.28-2.3,12.26-2.63,4.14-.34,8.36.27,12.77.48h0ZM46.14,165.69c-19.18,3.82-38.38,25.18-36.64,40.22,8.29-2.08,16.42-1.55,24.68,2.29,1.33-14.96,2.96-29.44,11.96-42.51Z"/>
    <path class="cls-1" d="M382.5,212.08v11.75c0,10.37-.03,20.73.02,31.1.02,3.97,1.85,6.38,5.01,6.53,3.5.16,5.46-1.74,5.99-5.16.38-2.48,1.66-4.26,4.29-3.81,2.82.48,3.4,2.74,3.03,5.31-.93,6.5-7,11.53-13.53,11.17-6.7-.37-12.12-5.91-12.19-12.96-.14-13.18-.05-26.36-.06-39.55v-4.52c-5.85.4-10.81,2.15-15.13,5.47-2.27,1.74-4.12,2.01-6.49.15-8.1-6.36-17.02-6.94-26.45-3.41-5.79,2.16-7.51.91-7.34-5.23.64-22.24,17.84-43.39,40.75-49.9,4.65-1.32,9.45-2.12,13.54-3.83,1.67-1.5,3.28-4.05,5.03-4.16,1.44-.09,3.06,2.74,4.27,4.68,9.99,1.44,19.77,4.24,28.51,9.93,15.93,10.36,25.1,24.85,26.15,44.04.28,5.1-1.87,6.55-6.62,4.7-9.79-3.81-19.04-3.31-27.51,3.36-2.08,1.64-3.81,1.38-5.86-.12-5.07-3.72-9.18-5.16-15.43-5.58l.02.04ZM360.47,208.09c12.37-5.02,24.32-4.94,36.66-.04-.31-3.66-.43-6.59-.82-9.48-1.38-10.22-3.18-20.44-9.93-28.65-6.48-7.87-8.75-8.13-15.11-.09-8.65,10.95-9.85,24.29-10.8,38.26h0ZM429.66,205.43c-.06-16.43-19.83-37.92-36.68-39.41,8.71,12.64,10.4,27.09,11.64,41.56,4.38-.98,8.28-2.3,12.26-2.63,4.14-.34,8.36.27,12.77.48h0ZM364.78,165.69c-19.18,3.82-38.38,25.18-36.64,40.22,8.29-2.08,16.42-1.55,24.68,2.29,1.33-14.96,2.96-29.44,11.96-42.51Z"/>
    <path class="cls-1" d="M701.15,212.08v11.75c0,10.37-.03,20.73.02,31.1.02,3.97,1.85,6.38,5.01,6.53,3.5.16,5.46-1.74,5.99-5.16.38-2.48,1.66-4.26,4.29-3.81,2.82.48,3.4,2.74,3.03,5.31-.93,6.5-7,11.53-13.53,11.17-6.7-.37-12.12-5.91-12.19-12.96-.14-13.18-.05-26.36-.06-39.55v-4.52c-5.85.4-10.81,2.15-15.13,5.47-2.27,1.74-4.12,2.01-6.49.15-8.1-6.36-17.02-6.94-26.45-3.41-5.79,2.16-7.51.91-7.34-5.23.64-22.24,17.84-43.39,40.75-49.9,4.65-1.32,9.45-2.12,13.54-3.83,1.67-1.5,3.28-4.05,5.03-4.16,1.44-.09,3.06,2.74,4.27,4.68,9.99,1.44,19.77,4.24,28.51,9.93,15.93,10.36,25.1,24.85,26.15,44.04.28,5.1-1.87,6.55-6.62,4.7-9.79-3.81-19.04-3.31-27.51,3.36-2.08,1.64-3.81,1.38-5.86-.12-5.07-3.72-9.18-5.16-15.43-5.58l.02.04ZM679.11,208.09c12.37-5.02,24.32-4.94,36.66-.04-.31-3.66-.43-6.59-.82-9.48-1.38-10.22-3.18-20.44-9.93-28.65-6.48-7.87-8.75-8.13-15.11-.09-8.65,10.95-9.85,24.29-10.8,38.26h0ZM748.31,205.43c-.06-16.43-19.83-37.92-36.68-39.41,8.71,12.64,10.4,27.09,11.64,41.56,4.38-.98,8.28-2.3,12.26-2.63,4.14-.34,8.36.27,12.77.48h0ZM683.42,165.69c-19.18,3.82-38.38,25.18-36.64,40.22,8.29-2.08,16.42-1.55,24.68,2.29,1.33-14.96,2.96-29.44,11.96-42.51Z"/>
    <path class="cls-1" d="M1808.97,207.97v-11.75c0-10.37.03-20.73-.02-31.1-.02-3.97-1.85-6.38-5.01-6.53-3.5-.16-5.46,1.74-5.99,5.16-.38,2.48-1.66,4.26-4.29,3.81-2.82-.48-3.4-2.74-3.03-5.31.93-6.5,7-11.53,13.53-11.17,6.7.37,12.12,5.91,12.19,12.96.14,13.18.05,26.36.06,39.55v4.52c5.85-.4,10.81-2.15,15.13-5.47,2.27-1.74,4.12-2.01,6.49-.15,8.1,6.36,17.02,6.94,26.45,3.41,5.79-2.16,7.51-.91,7.34,5.23-.64,22.24-17.84,43.39-40.75,49.9-4.65,1.32-9.45,2.12-13.54,3.83-1.67,1.5-3.28,4.05-5.03,4.16-1.44.09-3.06-2.74-4.27-4.68-9.99-1.44-19.77-4.24-28.51-9.93-15.93-10.36-25.1-24.85-26.15-44.04-.28-5.1,1.87-6.55,6.62-4.7,9.79,3.81,19.04,3.31,27.51-3.36,2.08-1.64,3.81-1.38,5.86.12,5.07,3.72,9.18,5.16,15.43,5.58l-.02-.04ZM1831.01,211.97c-12.37,5.02-24.32,4.94-36.66.04.31,3.66.43,6.59.82,9.48,1.38,10.22,3.18,20.44,9.93,28.65,6.48,7.87,8.75,8.13,15.11.09,8.65-10.95,9.85-24.29,10.8-38.26ZM1761.81,214.63c.06,16.43,19.83,37.92,36.68,39.41-8.71-12.64-10.4-27.09-11.64-41.56-4.38.98-8.28,2.3-12.26,2.63-4.14.34-8.36-.27-12.77-.48h-.01ZM1826.69,254.36c19.18-3.82,38.38-25.18,36.64-40.22-8.29,2.08-16.42,1.55-24.68-2.29-1.33,14.96-2.96,29.44-11.96,42.51Z"/>
    <path class="cls-1" d="M1019.79,212.08v11.75c0,10.37-.03,20.73.02,31.1.02,3.97,1.85,6.38,5.01,6.53,3.5.16,5.46-1.74,5.99-5.16.38-2.48,1.66-4.26,4.29-3.81,2.82.48,3.4,2.74,3.03,5.31-.93,6.5-7,11.53-13.53,11.17-6.7-.37-12.12-5.91-12.19-12.96-.14-13.18-.05-26.36-.06-39.55v-4.52c-5.85.4-10.81,2.15-15.13,5.47-2.27,1.74-4.12,2.01-6.49.15-8.1-6.36-17.02-6.94-26.45-3.41-5.79,2.16-7.51.91-7.34-5.23.64-22.24,17.84-43.39,40.75-49.9,4.65-1.32,9.45-2.12,13.54-3.83,1.67-1.5,3.28-4.05,5.03-4.16,1.44-.09,3.06,2.74,4.27,4.68,9.99,1.44,19.77,4.24,28.51,9.93,15.93,10.36,25.1,24.85,26.15,44.04.28,5.1-1.87,6.55-6.62,4.7-9.79-3.81-19.04-3.31-27.51,3.36-2.08,1.64-3.81,1.38-5.86-.12-5.07-3.72-9.18-5.16-15.43-5.58l.02.04ZM997.75,208.09c12.37-5.02,24.32-4.94,36.66-.04-.31-3.66-.43-6.59-.82-9.48-1.38-10.22-3.18-20.44-9.93-28.65-6.48-7.87-8.75-8.13-15.11-.09-8.65,10.95-9.85,24.29-10.8,38.26h0ZM1066.95,205.43c-.06-16.43-19.83-37.92-36.68-39.41,8.71,12.64,10.4,27.09,11.64,41.56,4.38-.98,8.28-2.3,12.26-2.63,4.14-.34,8.36.27,12.77.48h.01ZM1002.07,165.69c-19.18,3.82-38.38,25.18-36.64,40.22,8.29-2.08,16.42-1.55,24.68,2.29,1.33-14.96,2.96-29.44,11.96-42.51Z"/>
    <path class="cls-1" d="M1490.33,207.97v-11.75c0-10.37.03-20.73-.02-31.1-.02-3.97-1.85-6.38-5.01-6.53-3.5-.16-5.46,1.74-5.99,5.16-.38,2.48-1.66,4.26-4.29,3.81-2.82-.48-3.4-2.74-3.03-5.31.93-6.5,7-11.53,13.53-11.17,6.7.37,12.12,5.91,12.19,12.96.14,13.18.05,26.36.06,39.55v4.52c5.85-.4,10.81-2.15,15.13-5.47,2.27-1.74,4.12-2.01,6.49-.15,8.1,6.36,17.02,6.94,26.45,3.41,5.79-2.16,7.51-.91,7.34,5.23-.64,22.24-17.84,43.39-40.75,49.9-4.65,1.32-9.45,2.12-13.54,3.83-1.67,1.5-3.28,4.05-5.03,4.16-1.44.09-3.06-2.74-4.27-4.68-9.99-1.44-19.77-4.24-28.51-9.93-15.93-10.36-25.1-24.85-26.15-44.04-.28-5.1,1.87-6.55,6.62-4.7,9.79,3.81,19.04,3.31,27.51-3.36,2.08-1.64,3.81-1.38,5.86.12,5.07,3.72,9.18,5.16,15.43,5.58l-.02-.04ZM1512.36,211.97c-12.37,5.02-24.32,4.94-36.66.04.31,3.66.43,6.59.82,9.48,1.38,10.22,3.18,20.44,9.93,28.65,6.48,7.87,8.75,8.13,15.11.09,8.65-10.95,9.85-24.29,10.8-38.26ZM1443.17,214.63c.06,16.43,19.83,37.92,36.68,39.41-8.71-12.64-10.4-27.09-11.64-41.56-4.38.98-8.28,2.3-12.26,2.63-4.14.34-8.36-.27-12.77-.48h-.01ZM1508.05,254.36c19.18-3.82,38.38-25.18,36.64-40.22-8.29,2.08-16.42,1.55-24.68-2.29-1.33,14.96-2.96,29.44-11.96,42.51Z"/>
    <path class="cls-1" d="M1338.43,212.08v11.75c0,10.37-.03,20.73.02,31.1.02,3.97,1.85,6.38,5.01,6.53,3.5.16,5.46-1.74,5.99-5.16.38-2.48,1.66-4.26,4.29-3.81,2.82.48,3.4,2.74,3.03,5.31-.93,6.5-7,11.53-13.53,11.17-6.7-.37-12.12-5.91-12.19-12.96-.14-13.18-.05-26.36-.06-39.55v-4.52c-5.85.4-10.81,2.15-15.13,5.47-2.27,1.74-4.12,2.01-6.49.15-8.1-6.36-17.02-6.94-26.45-3.41-5.79,2.16-7.51.91-7.34-5.23.64-22.24,17.84-43.39,40.75-49.9,4.65-1.32,9.45-2.12,13.54-3.83,1.67-1.5,3.28-4.05,5.03-4.16,1.44-.09,3.06,2.74,4.27,4.68,9.99,1.44,19.77,4.24,28.51,9.93,15.93,10.36,25.1,24.85,26.15,44.04.28,5.1-1.87,6.55-6.62,4.7-9.79-3.81-19.04-3.31-27.51,3.36-2.08,1.64-3.81,1.38-5.86-.12-5.07-3.72-9.18-5.16-15.43-5.58l.02.04ZM1316.4,208.09c12.37-5.02,24.32-4.94,36.66-.04-.31-3.66-.43-6.59-.82-9.48-1.38-10.22-3.18-20.44-9.93-28.65-6.48-7.87-8.75-8.13-15.11-.09-8.65,10.95-9.85,24.29-10.8,38.26h0ZM1385.59,205.43c-.06-16.43-19.83-37.92-36.68-39.41,8.71,12.64,10.4,27.09,11.64,41.56,4.38-.98,8.28-2.3,12.26-2.63,4.14-.34,8.36.27,12.77.48h.01ZM1320.71,165.69c-19.18,3.82-38.38,25.18-36.64,40.22,8.29-2.08,16.42-1.55,24.68,2.29,1.33-14.96,2.96-29.44,11.96-42.51Z"/>
    <path class="cls-1" d="M1171.69,207.97v-11.75c0-10.37.03-20.73-.02-31.1-.02-3.97-1.85-6.38-5.01-6.53-3.5-.16-5.46,1.74-5.99,5.16-.38,2.48-1.66,4.26-4.29,3.81-2.82-.48-3.4-2.74-3.03-5.31.93-6.5,7-11.53,13.53-11.17,6.7.37,12.12,5.91,12.19,12.96.14,13.18.05,26.36.06,39.55v4.52c5.85-.4,10.81-2.15,15.13-5.47,2.27-1.74,4.12-2.01,6.49-.15,8.1,6.36,17.02,6.94,26.45,3.41,5.79-2.16,7.51-.91,7.34,5.23-.64,22.24-17.84,43.39-40.75,49.9-4.65,1.32-9.45,2.12-13.54,3.83-1.67,1.5-3.28,4.05-5.03,4.16-1.44.09-3.06-2.74-4.27-4.68-9.99-1.44-19.77-4.24-28.51-9.93-15.93-10.36-25.1-24.85-26.15-44.04-.28-5.1,1.87-6.55,6.62-4.7,9.79,3.81,19.04,3.31,27.51-3.36,2.08-1.64,3.81-1.38,5.86.12,5.07,3.72,9.18,5.16,15.43,5.58l-.02-.04ZM1193.72,211.97c-12.37,5.02-24.32,4.94-36.66.04.31,3.66.43,6.59.82,9.48,1.38,10.22,3.18,20.44,9.93,28.65,6.48,7.87,8.75,8.13,15.11.09,8.65-10.95,9.85-24.29,10.8-38.26ZM1124.52,214.63c.06,16.43,19.83,37.92,36.68,39.41-8.71-12.64-10.4-27.09-11.64-41.56-4.38.98-8.28,2.3-12.26,2.63-4.14.34-8.36-.27-12.77-.48h-.01ZM1189.41,254.36c19.18-3.82,38.38-25.18,36.64-40.22-8.29,2.08-16.42,1.55-24.68-2.29-1.33,14.96-2.96,29.44-11.96,42.51Z"/>
    <path class="cls-1" d="M1657.07,212.08v11.75c0,10.37-.03,20.73.02,31.1.02,3.97,1.85,6.38,5.01,6.53,3.5.16,5.46-1.74,5.99-5.16.38-2.48,1.66-4.26,4.29-3.81,2.82.48,3.4,2.74,3.03,5.31-.93,6.5-7,11.53-13.53,11.17-6.7-.37-12.12-5.91-12.19-12.96-.14-13.18-.05-26.36-.06-39.55v-4.52c-5.85.4-10.81,2.15-15.13,5.47-2.27,1.74-4.12,2.01-6.49.15-8.1-6.36-17.02-6.94-26.45-3.41-5.79,2.16-7.51.91-7.34-5.23.64-22.24,17.84-43.39,40.75-49.9,4.65-1.32,9.45-2.12,13.54-3.83,1.67-1.5,3.28-4.05,5.03-4.16,1.44-.09,3.06,2.74,4.27,4.68,9.99,1.44,19.77,4.24,28.51,9.93,15.93,10.36,25.1,24.85,26.15,44.04.28,5.1-1.87,6.55-6.62,4.7-9.79-3.81-19.04-3.31-27.51,3.36-2.08,1.64-3.81,1.38-5.86-.12-5.07-3.72-9.18-5.16-15.43-5.58l.02.04ZM1635.04,208.09c12.37-5.02,24.32-4.94,36.66-.04-.31-3.66-.43-6.59-.82-9.48-1.38-10.22-3.18-20.44-9.93-28.65-6.48-7.87-8.75-8.13-15.11-.09-8.65,10.95-9.85,24.29-10.8,38.26h0ZM1704.24,205.43c-.06-16.43-19.83-37.92-36.68-39.41,8.71,12.64,10.4,27.09,11.64,41.56,4.38-.98,8.28-2.3,12.26-2.63,4.14-.34,8.36.27,12.77.48h.01ZM1639.35,165.69c-19.18,3.82-38.38,25.18-36.64,40.22,8.29-2.08,16.42-1.55,24.68,2.29,1.33-14.96,2.96-29.44,11.96-42.51Z"/>
    <path class="cls-1" d="M853.04,207.97v-11.75c0-10.37.03-20.73-.02-31.1-.02-3.97-1.85-6.38-5.01-6.53-3.5-.16-5.46,1.74-5.99,5.16-.38,2.48-1.66,4.26-4.29,3.81-2.82-.48-3.4-2.74-3.03-5.31.93-6.5,7-11.53,13.53-11.17,6.7.37,12.12,5.91,12.19,12.96.14,13.18.05,26.36.06,39.55v4.52c5.85-.4,10.81-2.15,15.13-5.47,2.27-1.74,4.12-2.01,6.49-.15,8.1,6.36,17.02,6.94,26.45,3.41,5.79-2.16,7.51-.91,7.34,5.23-.64,22.24-17.84,43.39-40.75,49.9-4.65,1.32-9.45,2.12-13.54,3.83-1.67,1.5-3.28,4.05-5.03,4.16-1.44.09-3.06-2.74-4.27-4.68-9.99-1.44-19.77-4.24-28.51-9.93-15.93-10.36-25.1-24.85-26.15-44.04-.28-5.1,1.87-6.55,6.62-4.7,9.79,3.81,19.04,3.31,27.51-3.36,2.08-1.64,3.81-1.38,5.86.12,5.07,3.72,9.18,5.16,15.43,5.58l-.02-.04ZM875.08,211.97c-12.37,5.02-24.32,4.94-36.66.04.31,3.66.43,6.59.82,9.48,1.38,10.22,3.18,20.44,9.93,28.65,6.48,7.87,8.75,8.13,15.11.09,8.65-10.95,9.85-24.29,10.8-38.26ZM805.88,214.63c.06,16.43,19.83,37.92,36.68,39.41-8.71-12.64-10.4-27.09-11.64-41.56-4.38.98-8.28,2.3-12.26,2.63-4.14.34-8.36-.27-12.77-.48h0ZM870.76,254.36c19.18-3.82,38.38-25.18,36.64-40.22-8.29,2.08-16.42,1.55-24.68-2.29-1.33,14.96-2.96,29.44-11.96,42.51Z"/>
    <path class="cls-1" d="M534.4,207.97v-11.75c0-10.37.03-20.73-.02-31.1-.02-3.97-1.85-6.38-5.01-6.53-3.5-.16-5.46,1.74-5.99,5.16-.38,2.48-1.66,4.26-4.29,3.81-2.82-.48-3.4-2.74-3.03-5.31.93-6.5,7-11.53,13.53-11.17,6.7.37,12.12,5.91,12.19,12.96.14,13.18.05,26.36.06,39.55v4.52c5.85-.4,10.81-2.15,15.13-5.47,2.27-1.74,4.12-2.01,6.49-.15,8.1,6.36,17.02,6.94,26.45,3.41,5.79-2.16,7.51-.91,7.34,5.23-.64,22.24-17.84,43.39-40.75,49.9-4.65,1.32-9.45,2.12-13.54,3.83-1.67,1.5-3.28,4.05-5.03,4.16-1.44.09-3.06-2.74-4.27-4.68-9.99-1.44-19.77-4.24-28.51-9.93-15.93-10.36-25.1-24.85-26.15-44.04-.28-5.1,1.87-6.55,6.62-4.7,9.79,3.81,19.04,3.31,27.51-3.36,2.08-1.64,3.81-1.38,5.86.12,5.07,3.72,9.18,5.16,15.43,5.58l-.02-.04ZM556.43,211.97c-12.37,5.02-24.32,4.94-36.66.04.31,3.66.43,6.59.82,9.48,1.38,10.22,3.18,20.44,9.93,28.65,6.48,7.87,8.75,8.13,15.11.09,8.65-10.95,9.85-24.29,10.8-38.26ZM487.24,214.63c.06,16.43,19.83,37.92,36.68,39.41-8.71-12.64-10.4-27.09-11.64-41.56-4.38.98-8.28,2.3-12.26,2.63-4.14.34-8.36-.27-12.77-.48h-.01ZM552.12,254.36c19.18-3.82,38.38-25.18,36.64-40.22-8.29,2.08-16.42,1.55-24.68-2.29-1.33,14.96-2.96,29.44-11.96,42.51Z"/>
    <path class="cls-1" d="M215.76,207.97v-11.75c0-10.37.03-20.73-.02-31.1-.02-3.97-1.85-6.38-5.01-6.53-3.5-.16-5.46,1.74-5.99,5.16-.38,2.48-1.66,4.26-4.29,3.81-2.82-.48-3.4-2.74-3.03-5.31.93-6.5,7-11.53,13.53-11.17,6.7.37,12.12,5.91,12.19,12.96.14,13.18.05,26.36.06,39.55v4.52c5.85-.4,10.81-2.15,15.13-5.47,2.27-1.74,4.12-2.01,6.49-.15,8.1,6.36,17.02,6.94,26.45,3.41,5.79-2.16,7.51-.91,7.34,5.23-.64,22.24-17.84,43.39-40.75,49.9-4.65,1.32-9.45,2.12-13.54,3.83-1.67,1.5-3.28,4.05-5.03,4.16-1.44.09-3.06-2.74-4.27-4.68-9.99-1.44-19.77-4.24-28.51-9.93-15.93-10.36-25.1-24.85-26.15-44.04-.28-5.1,1.87-6.55,6.62-4.7,9.79,3.81,19.04,3.31,27.51-3.36,2.08-1.64,3.81-1.38,5.86.12,5.07,3.72,9.18,5.16,15.43,5.58l-.02-.04ZM237.79,211.97c-12.37,5.02-24.32,4.94-36.66.04.31,3.66.43,6.59.82,9.48,1.38,10.22,3.18,20.44,9.93,28.65,6.48,7.87,8.75,8.13,15.11.09,8.65-10.95,9.85-24.29,10.8-38.26ZM168.6,214.63c.06,16.43,19.83,37.92,36.68,39.41-8.71-12.64-10.4-27.09-11.64-41.56-4.38.98-8.28,2.3-12.26,2.63-4.14.34-8.36-.27-12.77-.48h0ZM233.48,254.36c19.18-3.82,38.38-25.18,36.64-40.22-8.29,2.08-16.42,1.55-24.68-2.29-1.33,14.96-2.96,29.44-11.96,42.51Z"/>
    <path class="cls-1" d="M63.86,362.12v11.75c0,10.37-.03,20.73.02,31.1.02,3.97,1.85,6.38,5.01,6.53,3.5.16,5.46-1.74,5.99-5.16.38-2.48,1.66-4.26,4.29-3.81,2.82.48,3.4,2.74,3.03,5.31-.93,6.5-7,11.53-13.53,11.17-6.7-.37-12.12-5.91-12.19-12.96-.14-13.18-.05-26.36-.06-39.55v-4.52c-5.85.4-10.81,2.15-15.13,5.47-2.27,1.74-4.12,2.01-6.49.15-8.1-6.36-17.02-6.94-26.45-3.41-5.79,2.16-7.51.91-7.34-5.23.64-22.24,17.84-43.39,40.75-49.9,4.65-1.32,9.45-2.12,13.54-3.83,1.67-1.5,3.28-4.05,5.03-4.16,1.44-.09,3.06,2.74,4.27,4.68,9.99,1.44,19.77,4.24,28.51,9.93,15.93,10.36,25.1,24.85,26.15,44.04.28,5.1-1.87,6.55-6.62,4.7-9.79-3.81-19.04-3.31-27.51,3.36-2.08,1.64-3.81,1.38-5.86-.12-5.07-3.72-9.18-5.16-15.43-5.58l.02.04ZM41.83,358.12c12.37-5.02,24.32-4.94,36.66-.04-.31-3.66-.43-6.59-.82-9.48-1.38-10.22-3.18-20.44-9.93-28.65-6.48-7.87-8.75-8.13-15.11-.09-8.65,10.95-9.85,24.29-10.8,38.26ZM111.02,355.46c-.06-16.43-19.83-37.92-36.68-39.41,8.71,12.64,10.4,27.09,11.64,41.56,4.38-.98,8.28-2.3,12.26-2.63,4.14-.34,8.36.27,12.77.48h0ZM46.14,315.73c-19.18,3.82-38.38,25.18-36.64,40.22,8.29-2.08,16.42-1.55,24.68,2.29,1.33-14.96,2.96-29.44,11.96-42.51Z"/>
    <path class="cls-1" d="M382.5,362.12v11.75c0,10.37-.03,20.73.02,31.1.02,3.97,1.85,6.38,5.01,6.53,3.5.16,5.46-1.74,5.99-5.16.38-2.48,1.66-4.26,4.29-3.81,2.82.48,3.4,2.74,3.03,5.31-.93,6.5-7,11.53-13.53,11.17-6.7-.37-12.12-5.91-12.19-12.96-.14-13.18-.05-26.36-.06-39.55v-4.52c-5.85.4-10.81,2.15-15.13,5.47-2.27,1.74-4.12,2.01-6.49.15-8.1-6.36-17.02-6.94-26.45-3.41-5.79,2.16-7.51.91-7.34-5.23.64-22.24,17.84-43.39,40.75-49.9,4.65-1.32,9.45-2.12,13.54-3.83,1.67-1.5,3.28-4.05,5.03-4.16,1.44-.09,3.06,2.74,4.27,4.68,9.99,1.44,19.77,4.24,28.51,9.93,15.93,10.36,25.1,24.85,26.15,44.04.28,5.1-1.87,6.55-6.62,4.7-9.79-3.81-19.04-3.31-27.51,3.36-2.08,1.64-3.81,1.38-5.86-.12-5.07-3.72-9.18-5.16-15.43-5.58l.02.04ZM360.47,358.12c12.37-5.02,24.32-4.94,36.66-.04-.31-3.66-.43-6.59-.82-9.48-1.38-10.22-3.18-20.44-9.93-28.65-6.48-7.87-8.75-8.13-15.11-.09-8.65,10.95-9.85,24.29-10.8,38.26h0ZM429.66,355.46c-.06-16.43-19.83-37.92-36.68-39.41,8.71,12.64,10.4,27.09,11.64,41.56,4.38-.98,8.28-2.3,12.26-2.63,4.14-.34,8.36.27,12.77.48h0ZM364.78,315.73c-19.18,3.82-38.38,25.18-36.64,40.22,8.29-2.08,16.42-1.55,24.68,2.29,1.33-14.96,2.96-29.44,11.96-42.51Z"/>
    <path class="cls-1" d="M701.15,362.12v11.75c0,10.37-.03,20.73.02,31.1.02,3.97,1.85,6.38,5.01,6.53,3.5.16,5.46-1.74,5.99-5.16.38-2.48,1.66-4.26,4.29-3.81,2.82.48,3.4,2.74,3.03,5.31-.93,6.5-7,11.53-13.53,11.17-6.7-.37-12.12-5.91-12.19-12.96-.14-13.18-.05-26.36-.06-39.55v-4.52c-5.85.4-10.81,2.15-15.13,5.47-2.27,1.74-4.12,2.01-6.49.15-8.1-6.36-17.02-6.94-26.45-3.41-5.79,2.16-7.51.91-7.34-5.23.64-22.24,17.84-43.39,40.75-49.9,4.65-1.32,9.45-2.12,13.54-3.83,1.67-1.5,3.28-4.05,5.03-4.16,1.44-.09,3.06,2.74,4.27,4.68,9.99,1.44,19.77,4.24,28.51,9.93,15.93,10.36,25.1,24.85,26.15,44.04.28,5.1-1.87,6.55-6.62,4.7-9.79-3.81-19.04-3.31-27.51,3.36-2.08,1.64-3.81,1.38-5.86-.12-5.07-3.72-9.18-5.16-15.43-5.58l.02.04ZM679.11,358.12c12.37-5.02,24.32-4.94,36.66-.04-.31-3.66-.43-6.59-.82-9.48-1.38-10.22-3.18-20.44-9.93-28.65-6.48-7.87-8.75-8.13-15.11-.09-8.65,10.95-9.85,24.29-10.8,38.26ZM748.31,355.46c-.06-16.43-19.83-37.92-36.68-39.41,8.71,12.64,10.4,27.09,11.64,41.56,4.38-.98,8.28-2.3,12.26-2.63,4.14-.34,8.36.27,12.77.48h0ZM683.42,315.73c-19.18,3.82-38.38,25.18-36.64,40.22,8.29-2.08,16.42-1.55,24.68,2.29,1.33-14.96,2.96-29.44,11.96-42.51Z"/>
    <path class="cls-1" d="M1808.97,358.01v-11.75c0-10.37.03-20.73-.02-31.1-.02-3.97-1.85-6.38-5.01-6.53-3.5-.16-5.46,1.74-5.99,5.16-.38,2.48-1.66,4.26-4.29,3.81-2.82-.48-3.4-2.74-3.03-5.31.93-6.5,7-11.53,13.53-11.17,6.7.37,12.12,5.91,12.19,12.96.14,13.18.05,26.36.06,39.55v4.52c5.85-.4,10.81-2.15,15.13-5.47,2.27-1.74,4.12-2.01,6.49-.15,8.1,6.36,17.02,6.94,26.45,3.41,5.79-2.16,7.51-.91,7.34,5.23-.64,22.24-17.84,43.39-40.75,49.9-4.65,1.32-9.45,2.12-13.54,3.83-1.67,1.5-3.28,4.05-5.03,4.16-1.44.09-3.06-2.74-4.27-4.68-9.99-1.44-19.77-4.24-28.51-9.93-15.93-10.36-25.1-24.85-26.15-44.04-.28-5.1,1.87-6.55,6.62-4.7,9.79,3.81,19.04,3.31,27.51-3.36,2.08-1.64,3.81-1.38,5.86.12,5.07,3.72,9.18,5.16,15.43,5.58l-.02-.04ZM1831.01,362c-12.37,5.02-24.32,4.94-36.66.04.31,3.66.43,6.59.82,9.48,1.38,10.22,3.18,20.44,9.93,28.65,6.48,7.87,8.75,8.13,15.11.09,8.65-10.95,9.85-24.29,10.8-38.26ZM1761.81,364.66c.06,16.43,19.83,37.92,36.68,39.41-8.71-12.64-10.4-27.09-11.64-41.56-4.38.98-8.28,2.3-12.26,2.63-4.14.34-8.36-.27-12.77-.48h-.01ZM1826.69,404.4c19.18-3.82,38.38-25.18,36.64-40.22-8.29,2.08-16.42,1.55-24.68-2.29-1.33,14.96-2.96,29.44-11.96,42.51Z"/>
    <path class="cls-1" d="M1019.79,362.12v11.75c0,10.37-.03,20.73.02,31.1.02,3.97,1.85,6.38,5.01,6.53,3.5.16,5.46-1.74,5.99-5.16.38-2.48,1.66-4.26,4.29-3.81,2.82.48,3.4,2.74,3.03,5.31-.93,6.5-7,11.53-13.53,11.17-6.7-.37-12.12-5.91-12.19-12.96-.14-13.18-.05-26.36-.06-39.55v-4.52c-5.85.4-10.81,2.15-15.13,5.47-2.27,1.74-4.12,2.01-6.49.15-8.1-6.36-17.02-6.94-26.45-3.41-5.79,2.16-7.51.91-7.34-5.23.64-22.24,17.84-43.39,40.75-49.9,4.65-1.32,9.45-2.12,13.54-3.83,1.67-1.5,3.28-4.05,5.03-4.16,1.44-.09,3.06,2.74,4.27,4.68,9.99,1.44,19.77,4.24,28.51,9.93,15.93,10.36,25.1,24.85,26.15,44.04.28,5.1-1.87,6.55-6.62,4.7-9.79-3.81-19.04-3.31-27.51,3.36-2.08,1.64-3.81,1.38-5.86-.12-5.07-3.72-9.18-5.16-15.43-5.58l.02.04ZM997.75,358.12c12.37-5.02,24.32-4.94,36.66-.04-.31-3.66-.43-6.59-.82-9.48-1.38-10.22-3.18-20.44-9.93-28.65-6.48-7.87-8.75-8.13-15.11-.09-8.65,10.95-9.85,24.29-10.8,38.26h0ZM1066.95,355.46c-.06-16.43-19.83-37.92-36.68-39.41,8.71,12.64,10.4,27.09,11.64,41.56,4.38-.98,8.28-2.3,12.26-2.63,4.14-.34,8.36.27,12.77.48h.01ZM1002.07,315.73c-19.18,3.82-38.38,25.18-36.64,40.22,8.29-2.08,16.42-1.55,24.68,2.29,1.33-14.96,2.96-29.44,11.96-42.51Z"/>
    <path class="cls-1" d="M1490.33,358.01v-11.75c0-10.37.03-20.73-.02-31.1-.02-3.97-1.85-6.38-5.01-6.53-3.5-.16-5.46,1.74-5.99,5.16-.38,2.48-1.66,4.26-4.29,3.81-2.82-.48-3.4-2.74-3.03-5.31.93-6.5,7-11.53,13.53-11.17,6.7.37,12.12,5.91,12.19,12.96.14,13.18.05,26.36.06,39.55v4.52c5.85-.4,10.81-2.15,15.13-5.47,2.27-1.74,4.12-2.01,6.49-.15,8.1,6.36,17.02,6.94,26.45,3.41,5.79-2.16,7.51-.91,7.34,5.23-.64,22.24-17.84,43.39-40.75,49.9-4.65,1.32-9.45,2.12-13.54,3.83-1.67,1.5-3.28,4.05-5.03,4.16-1.44.09-3.06-2.74-4.27-4.68-9.99-1.44-19.77-4.24-28.51-9.93-15.93-10.36-25.1-24.85-26.15-44.04-.28-5.1,1.87-6.55,6.62-4.7,9.79,3.81,19.04,3.31,27.51-3.36,2.08-1.64,3.81-1.38,5.86.12,5.07,3.72,9.18,5.16,15.43,5.58l-.02-.04ZM1512.36,362c-12.37,5.02-24.32,4.94-36.66.04.31,3.66.43,6.59.82,9.48,1.38,10.22,3.18,20.44,9.93,28.65,6.48,7.87,8.75,8.13,15.11.09,8.65-10.95,9.85-24.29,10.8-38.26ZM1443.17,364.66c.06,16.43,19.83,37.92,36.68,39.41-8.71-12.64-10.4-27.09-11.64-41.56-4.38.98-8.28,2.3-12.26,2.63-4.14.34-8.36-.27-12.77-.48h-.01ZM1508.05,404.4c19.18-3.82,38.38-25.18,36.64-40.22-8.29,2.08-16.42,1.55-24.68-2.29-1.33,14.96-2.96,29.44-11.96,42.51Z"/>
    <path class="cls-1" d="M1338.43,362.12v11.75c0,10.37-.03,20.73.02,31.1.02,3.97,1.85,6.38,5.01,6.53,3.5.16,5.46-1.74,5.99-5.16.38-2.48,1.66-4.26,4.29-3.81,2.82.48,3.4,2.74,3.03,5.31-.93,6.5-7,11.53-13.53,11.17-6.7-.37-12.12-5.91-12.19-12.96-.14-13.18-.05-26.36-.06-39.55v-4.52c-5.85.4-10.81,2.15-15.13,5.47-2.27,1.74-4.12,2.01-6.49.15-8.1-6.36-17.02-6.94-26.45-3.41-5.79,2.16-7.51.91-7.34-5.23.64-22.24,17.84-43.39,40.75-49.9,4.65-1.32,9.45-2.12,13.54-3.83,1.67-1.5,3.28-4.05,5.03-4.16,1.44-.09,3.06,2.74,4.27,4.68,9.99,1.44,19.77,4.24,28.51,9.93,15.93,10.36,25.1,24.85,26.15,44.04.28,5.1-1.87,6.55-6.62,4.7-9.79-3.81-19.04-3.31-27.51,3.36-2.08,1.64-3.81,1.38-5.86-.12-5.07-3.72-9.18-5.16-15.43-5.58l.02.04ZM1316.4,358.12c12.37-5.02,24.32-4.94,36.66-.04-.31-3.66-.43-6.59-.82-9.48-1.38-10.22-3.18-20.44-9.93-28.65-6.48-7.87-8.75-8.13-15.11-.09-8.65,10.95-9.85,24.29-10.8,38.26ZM1385.59,355.46c-.06-16.43-19.83-37.92-36.68-39.41,8.71,12.64,10.4,27.09,11.64,41.56,4.38-.98,8.28-2.3,12.26-2.63,4.14-.34,8.36.27,12.77.48h.01ZM1320.71,315.73c-19.18,3.82-38.38,25.18-36.64,40.22,8.29-2.08,16.42-1.55,24.68,2.29,1.33-14.96,2.96-29.44,11.96-42.51Z"/>
    <path class="cls-1" d="M1171.69,358.01v-11.75c0-10.37.03-20.73-.02-31.1-.02-3.97-1.85-6.38-5.01-6.53-3.5-.16-5.46,1.74-5.99,5.16-.38,2.48-1.66,4.26-4.29,3.81-2.82-.48-3.4-2.74-3.03-5.31.93-6.5,7-11.53,13.53-11.17,6.7.37,12.12,5.91,12.19,12.96.14,13.18.05,26.36.06,39.55v4.52c5.85-.4,10.81-2.15,15.13-5.47,2.27-1.74,4.12-2.01,6.49-.15,8.1,6.36,17.02,6.94,26.45,3.41,5.79-2.16,7.51-.91,7.34,5.23-.64,22.24-17.84,43.39-40.75,49.9-4.65,1.32-9.45,2.12-13.54,3.83-1.67,1.5-3.28,4.05-5.03,4.16-1.44.09-3.06-2.74-4.27-4.68-9.99-1.44-19.77-4.24-28.51-9.93-15.93-10.36-25.1-24.85-26.15-44.04-.28-5.1,1.87-6.55,6.62-4.7,9.79,3.81,19.04,3.31,27.51-3.36,2.08-1.64,3.81-1.38,5.86.12,5.07,3.72,9.18,5.16,15.43,5.58l-.02-.04ZM1193.72,362c-12.37,5.02-24.32,4.94-36.66.04.31,3.66.43,6.59.82,9.48,1.38,10.22,3.18,20.44,9.93,28.65,6.48,7.87,8.75,8.13,15.11.09,8.65-10.95,9.85-24.29,10.8-38.26ZM1124.52,364.66c.06,16.43,19.83,37.92,36.68,39.41-8.71-12.64-10.4-27.09-11.64-41.56-4.38.98-8.28,2.3-12.26,2.63-4.14.34-8.36-.27-12.77-.48h-.01ZM1189.41,404.4c19.18-3.82,38.38-25.18,36.64-40.22-8.29,2.08-16.42,1.55-24.68-2.29-1.33,14.96-2.96,29.44-11.96,42.51Z"/>
    <path class="cls-1" d="M1657.07,362.12v11.75c0,10.37-.03,20.73.02,31.1.02,3.97,1.85,6.38,5.01,6.53,3.5.16,5.46-1.74,5.99-5.16.38-2.48,1.66-4.26,4.29-3.81,2.82.48,3.4,2.74,3.03,5.31-.93,6.5-7,11.53-13.53,11.17-6.7-.37-12.12-5.91-12.19-12.96-.14-13.18-.05-26.36-.06-39.55v-4.52c-5.85.4-10.81,2.15-15.13,5.47-2.27,1.74-4.12,2.01-6.49.15-8.1-6.36-17.02-6.94-26.45-3.41-5.79,2.16-7.51.91-7.34-5.23.64-22.24,17.84-43.39,40.75-49.9,4.65-1.32,9.45-2.12,13.54-3.83,1.67-1.5,3.28-4.05,5.03-4.16,1.44-.09,3.06,2.74,4.27,4.68,9.99,1.44,19.77,4.24,28.51,9.93,15.93,10.36,25.1,24.85,26.15,44.04.28,5.1-1.87,6.55-6.62,4.7-9.79-3.81-19.04-3.31-27.51,3.36-2.08,1.64-3.81,1.38-5.86-.12-5.07-3.72-9.18-5.16-15.43-5.58l.02.04ZM1635.04,358.12c12.37-5.02,24.32-4.94,36.66-.04-.31-3.66-.43-6.59-.82-9.48-1.38-10.22-3.18-20.44-9.93-28.65-6.48-7.87-8.75-8.13-15.11-.09-8.65,10.95-9.85,24.29-10.8,38.26ZM1704.24,355.46c-.06-16.43-19.83-37.92-36.68-39.41,8.71,12.64,10.4,27.09,11.64,41.56,4.38-.98,8.28-2.3,12.26-2.63,4.14-.34,8.36.27,12.77.48h.01ZM1639.35,315.73c-19.18,3.82-38.38,25.18-36.64,40.22,8.29-2.08,16.42-1.55,24.68,2.29,1.33-14.96,2.96-29.44,11.96-42.51Z"/>
    <path class="cls-1" d="M853.04,358.01v-11.75c0-10.37.03-20.73-.02-31.1-.02-3.97-1.85-6.38-5.01-6.53-3.5-.16-5.46,1.74-5.99,5.16-.38,2.48-1.66,4.26-4.29,3.81-2.82-.48-3.4-2.74-3.03-5.31.93-6.5,7-11.53,13.53-11.17,6.7.37,12.12,5.91,12.19,12.96.14,13.18.05,26.36.06,39.55v4.52c5.85-.4,10.81-2.15,15.13-5.47,2.27-1.74,4.12-2.01,6.49-.15,8.1,6.36,17.02,6.94,26.45,3.41,5.79-2.16,7.51-.91,7.34,5.23-.64,22.24-17.84,43.39-40.75,49.9-4.65,1.32-9.45,2.12-13.54,3.83-1.67,1.5-3.28,4.05-5.03,4.16-1.44.09-3.06-2.74-4.27-4.68-9.99-1.44-19.77-4.24-28.51-9.93-15.93-10.36-25.1-24.85-26.15-44.04-.28-5.1,1.87-6.55,6.62-4.7,9.79,3.81,19.04,3.31,27.51-3.36,2.08-1.64,3.81-1.38,5.86.12,5.07,3.72,9.18,5.16,15.43,5.58l-.02-.04ZM875.08,362c-12.37,5.02-24.32,4.94-36.66.04.31,3.66.43,6.59.82,9.48,1.38,10.22,3.18,20.44,9.93,28.65,6.48,7.87,8.75,8.13,15.11.09,8.65-10.95,9.85-24.29,10.8-38.26ZM805.88,364.66c.06,16.43,19.83,37.92,36.68,39.41-8.71-12.64-10.4-27.09-11.64-41.56-4.38.98-8.28,2.3-12.26,2.63-4.14.34-8.36-.27-12.77-.48h0ZM870.76,404.4c19.18-3.82,38.38-25.18,36.64-40.22-8.29,2.08-16.42,1.55-24.68-2.29-1.33,14.96-2.96,29.44-11.96,42.51Z"/>
    <path class="cls-1" d="M534.4,358.01v-11.75c0-10.37.03-20.73-.02-31.1-.02-3.97-1.85-6.38-5.01-6.53-3.5-.16-5.46,1.74-5.99,5.16-.38,2.48-1.66,4.26-4.29,3.81-2.82-.48-3.4-2.74-3.03-5.31.93-6.5,7-11.53,13.53-11.17,6.7.37,12.12,5.91,12.19,12.96.14,13.18.05,26.36.06,39.55v4.52c5.85-.4,10.81-2.15,15.13-5.47,2.27-1.74,4.12-2.01,6.49-.15,8.1,6.36,17.02,6.94,26.45,3.41,5.79-2.16,7.51-.91,7.34,5.23-.64,22.24-17.84,43.39-40.75,49.9-4.65,1.32-9.45,2.12-13.54,3.83-1.67,1.5-3.28,4.05-5.03,4.16-1.44.09-3.06-2.74-4.27-4.68-9.99-1.44-19.77-4.24-28.51-9.93-15.93-10.36-25.1-24.85-26.15-44.04-.28-5.1,1.87-6.55,6.62-4.7,9.79,3.81,19.04,3.31,27.51-3.36,2.08-1.64,3.81-1.38,5.86.12,5.07,3.72,9.18,5.16,15.43,5.58l-.02-.04ZM556.43,362c-12.37,5.02-24.32,4.94-36.66.04.31,3.66.43,6.59.82,9.48,1.38,10.22,3.18,20.44,9.93,28.65,6.48,7.87,8.75,8.13,15.11.09,8.65-10.95,9.85-24.29,10.8-38.26ZM487.24,364.66c.06,16.43,19.83,37.92,36.68,39.41-8.71-12.64-10.4-27.09-11.64-41.56-4.38.98-8.28,2.3-12.26,2.63-4.14.34-8.36-.27-12.77-.48h-.01ZM552.12,404.4c19.18-3.82,38.38-25.18,36.64-40.22-8.29,2.08-16.42,1.55-24.68-2.29-1.33,14.96-2.96,29.44-11.96,42.51Z"/>
    <path class="cls-1" d="M215.76,358.01v-11.75c0-10.37.03-20.73-.02-31.1-.02-3.97-1.85-6.38-5.01-6.53-3.5-.16-5.46,1.74-5.99,5.16-.38,2.48-1.66,4.26-4.29,3.81-2.82-.48-3.4-2.74-3.03-5.31.93-6.5,7-11.53,13.53-11.17,6.7.37,12.12,5.91,12.19,12.96.14,13.18.05,26.36.06,39.55v4.52c5.85-.4,10.81-2.15,15.13-5.47,2.27-1.74,4.12-2.01,6.49-.15,8.1,6.36,17.02,6.94,26.45,3.41,5.79-2.16,7.51-.91,7.34,5.23-.64,22.24-17.84,43.39-40.75,49.9-4.65,1.32-9.45,2.12-13.54,3.83-1.67,1.5-3.28,4.05-5.03,4.16-1.44.09-3.06-2.74-4.27-4.68-9.99-1.44-19.77-4.24-28.51-9.93-15.93-10.36-25.1-24.85-26.15-44.04-.28-5.1,1.87-6.55,6.62-4.7,9.79,3.81,19.04,3.31,27.51-3.36,2.08-1.64,3.81-1.38,5.86.12,5.07,3.72,9.18,5.16,15.43,5.58l-.02-.04ZM237.79,362c-12.37,5.02-24.32,4.94-36.66.04.31,3.66.43,6.59.82,9.48,1.38,10.22,3.18,20.44,9.93,28.65,6.48,7.87,8.75,8.13,15.11.09,8.65-10.95,9.85-24.29,10.8-38.26ZM168.6,364.66c.06,16.43,19.83,37.92,36.68,39.41-8.71-12.64-10.4-27.09-11.64-41.56-4.38.98-8.28,2.3-12.26,2.63-4.14.34-8.36-.27-12.77-.48h0ZM233.48,404.4c19.18-3.82,38.38-25.18,36.64-40.22-8.29,2.08-16.42,1.55-24.68-2.29-1.33,14.96-2.96,29.44-11.96,42.51Z"/>
    <path class="cls-1" d="M63.86,512.15v11.75c0,10.37-.03,20.73.02,31.1.02,3.97,1.85,6.38,5.01,6.53,3.5.16,5.46-1.74,5.99-5.16.38-2.48,1.66-4.26,4.29-3.81,2.82.48,3.4,2.74,3.03,5.31-.93,6.5-7,11.53-13.53,11.17-6.7-.37-12.12-5.91-12.19-12.96-.14-13.18-.05-26.36-.06-39.55v-4.52c-5.85.4-10.81,2.15-15.13,5.47-2.27,1.74-4.12,2.01-6.49.15-8.1-6.36-17.02-6.94-26.45-3.41-5.79,2.16-7.51.91-7.34-5.23.64-22.24,17.84-43.39,40.75-49.9,4.65-1.32,9.45-2.12,13.54-3.83,1.67-1.5,3.28-4.05,5.03-4.16,1.44-.09,3.06,2.74,4.27,4.68,9.99,1.44,19.77,4.24,28.51,9.93,15.93,10.36,25.1,24.85,26.15,44.04.28,5.1-1.87,6.55-6.62,4.7-9.79-3.81-19.04-3.31-27.51,3.36-2.08,1.64-3.81,1.38-5.86-.12-5.07-3.72-9.18-5.16-15.43-5.58l.02.04ZM41.83,508.16c12.37-5.02,24.32-4.94,36.66-.04-.31-3.66-.43-6.59-.82-9.48-1.38-10.22-3.18-20.44-9.93-28.65-6.48-7.87-8.75-8.13-15.11-.09-8.65,10.95-9.85,24.29-10.8,38.26h0ZM111.02,505.5c-.06-16.43-19.83-37.92-36.68-39.41,8.71,12.64,10.4,27.09,11.64,41.56,4.38-.98,8.28-2.3,12.26-2.63,4.14-.34,8.36.27,12.77.48h0ZM46.14,465.76c-19.18,3.82-38.38,25.18-36.64,40.22,8.29-2.08,16.42-1.55,24.68,2.29,1.33-14.96,2.96-29.44,11.96-42.51h0Z"/>
    <path class="cls-1" d="M382.5,512.15v11.75c0,10.37-.03,20.73.02,31.1.02,3.97,1.85,6.38,5.01,6.53,3.5.16,5.46-1.74,5.99-5.16.38-2.48,1.66-4.26,4.29-3.81,2.82.48,3.4,2.74,3.03,5.31-.93,6.5-7,11.53-13.53,11.17-6.7-.37-12.12-5.91-12.19-12.96-.14-13.18-.05-26.36-.06-39.55v-4.52c-5.85.4-10.81,2.15-15.13,5.47-2.27,1.74-4.12,2.01-6.49.15-8.1-6.36-17.02-6.94-26.45-3.41-5.79,2.16-7.51.91-7.34-5.23.64-22.24,17.84-43.39,40.75-49.9,4.65-1.32,9.45-2.12,13.54-3.83,1.67-1.5,3.28-4.05,5.03-4.16,1.44-.09,3.06,2.74,4.27,4.68,9.99,1.44,19.77,4.24,28.51,9.93,15.93,10.36,25.1,24.85,26.15,44.04.28,5.1-1.87,6.55-6.62,4.7-9.79-3.81-19.04-3.31-27.51,3.36-2.08,1.64-3.81,1.38-5.86-.12-5.07-3.72-9.18-5.16-15.43-5.58l.02.04ZM360.47,508.16c12.37-5.02,24.32-4.94,36.66-.04-.31-3.66-.43-6.59-.82-9.48-1.38-10.22-3.18-20.44-9.93-28.65-6.48-7.87-8.75-8.13-15.11-.09-8.65,10.95-9.85,24.29-10.8,38.26h0ZM429.66,505.5c-.06-16.43-19.83-37.92-36.68-39.41,8.71,12.64,10.4,27.09,11.64,41.56,4.38-.98,8.28-2.3,12.26-2.63,4.14-.34,8.36.27,12.77.48h0ZM364.78,465.76c-19.18,3.82-38.38,25.18-36.64,40.22,8.29-2.08,16.42-1.55,24.68,2.29,1.33-14.96,2.96-29.44,11.96-42.51h0Z"/>
    <path class="cls-1" d="M701.15,512.15v11.75c0,10.37-.03,20.73.02,31.1.02,3.97,1.85,6.38,5.01,6.53,3.5.16,5.46-1.74,5.99-5.16.38-2.48,1.66-4.26,4.29-3.81,2.82.48,3.4,2.74,3.03,5.31-.93,6.5-7,11.53-13.53,11.17-6.7-.37-12.12-5.91-12.19-12.96-.14-13.18-.05-26.36-.06-39.55v-4.52c-5.85.4-10.81,2.15-15.13,5.47-2.27,1.74-4.12,2.01-6.49.15-8.1-6.36-17.02-6.94-26.45-3.41-5.79,2.16-7.51.91-7.34-5.23.64-22.24,17.84-43.39,40.75-49.9,4.65-1.32,9.45-2.12,13.54-3.83,1.67-1.5,3.28-4.05,5.03-4.16,1.44-.09,3.06,2.74,4.27,4.68,9.99,1.44,19.77,4.24,28.51,9.93,15.93,10.36,25.1,24.85,26.15,44.04.28,5.1-1.87,6.55-6.62,4.7-9.79-3.81-19.04-3.31-27.51,3.36-2.08,1.64-3.81,1.38-5.86-.12-5.07-3.72-9.18-5.16-15.43-5.58l.02.04ZM679.11,508.16c12.37-5.02,24.32-4.94,36.66-.04-.31-3.66-.43-6.59-.82-9.48-1.38-10.22-3.18-20.44-9.93-28.65-6.48-7.87-8.75-8.13-15.11-.09-8.65,10.95-9.85,24.29-10.8,38.26h0ZM748.31,505.5c-.06-16.43-19.83-37.92-36.68-39.41,8.71,12.64,10.4,27.09,11.64,41.56,4.38-.98,8.28-2.3,12.26-2.63,4.14-.34,8.36.27,12.77.48h0ZM683.42,465.76c-19.18,3.82-38.38,25.18-36.64,40.22,8.29-2.08,16.42-1.55,24.68,2.29,1.33-14.96,2.96-29.44,11.96-42.51h0Z"/>
    <path class="cls-1" d="M1808.97,508.04v-11.75c0-10.37.03-20.73-.02-31.1-.02-3.97-1.85-6.38-5.01-6.53-3.5-.16-5.46,1.74-5.99,5.16-.38,2.48-1.66,4.26-4.29,3.81-2.82-.48-3.4-2.74-3.03-5.31.93-6.5,7-11.53,13.53-11.17,6.7.37,12.12,5.91,12.19,12.96.14,13.18.05,26.36.06,39.55v4.52c5.85-.4,10.81-2.15,15.13-5.47,2.27-1.74,4.12-2.01,6.49-.15,8.1,6.36,17.02,6.94,26.45,3.41,5.79-2.16,7.51-.91,7.34,5.23-.64,22.24-17.84,43.39-40.75,49.9-4.65,1.32-9.45,2.12-13.54,3.83-1.67,1.5-3.28,4.05-5.03,4.16-1.44.09-3.06-2.74-4.27-4.68-9.99-1.44-19.77-4.24-28.51-9.93-15.93-10.36-25.1-24.85-26.15-44.04-.28-5.1,1.87-6.55,6.62-4.7,9.79,3.81,19.04,3.31,27.51-3.36,2.08-1.64,3.81-1.38,5.86.12,5.07,3.72,9.18,5.16,15.43,5.58l-.02-.04ZM1831.01,512.03c-12.37,5.02-24.32,4.94-36.66.04.31,3.66.43,6.59.82,9.48,1.38,10.22,3.18,20.44,9.93,28.65,6.48,7.87,8.75,8.13,15.11.09,8.65-10.95,9.85-24.29,10.8-38.26ZM1761.81,514.69c.06,16.43,19.83,37.92,36.68,39.41-8.71-12.64-10.4-27.09-11.64-41.56-4.38.98-8.28,2.3-12.26,2.63-4.14.34-8.36-.27-12.77-.48h-.01ZM1826.69,554.43c19.18-3.82,38.38-25.18,36.64-40.22-8.29,2.08-16.42,1.55-24.68-2.29-1.33,14.96-2.96,29.44-11.96,42.51Z"/>
    <path class="cls-1" d="M1019.79,512.15v11.75c0,10.37-.03,20.73.02,31.1.02,3.97,1.85,6.38,5.01,6.53,3.5.16,5.46-1.74,5.99-5.16.38-2.48,1.66-4.26,4.29-3.81,2.82.48,3.4,2.74,3.03,5.31-.93,6.5-7,11.53-13.53,11.17-6.7-.37-12.12-5.91-12.19-12.96-.14-13.18-.05-26.36-.06-39.55v-4.52c-5.85.4-10.81,2.15-15.13,5.47-2.27,1.74-4.12,2.01-6.49.15-8.1-6.36-17.02-6.94-26.45-3.41-5.79,2.16-7.51.91-7.34-5.23.64-22.24,17.84-43.39,40.75-49.9,4.65-1.32,9.45-2.12,13.54-3.83,1.67-1.5,3.28-4.05,5.03-4.16,1.44-.09,3.06,2.74,4.27,4.68,9.99,1.44,19.77,4.24,28.51,9.93,15.93,10.36,25.1,24.85,26.15,44.04.28,5.1-1.87,6.55-6.62,4.7-9.79-3.81-19.04-3.31-27.51,3.36-2.08,1.64-3.81,1.38-5.86-.12-5.07-3.72-9.18-5.16-15.43-5.58l.02.04ZM997.75,508.16c12.37-5.02,24.32-4.94,36.66-.04-.31-3.66-.43-6.59-.82-9.48-1.38-10.22-3.18-20.44-9.93-28.65-6.48-7.87-8.75-8.13-15.11-.09-8.65,10.95-9.85,24.29-10.8,38.26h0ZM1066.95,505.5c-.06-16.43-19.83-37.92-36.68-39.41,8.71,12.64,10.4,27.09,11.64,41.56,4.38-.98,8.28-2.3,12.26-2.63,4.14-.34,8.36.27,12.77.48h.01ZM1002.07,465.76c-19.18,3.82-38.38,25.18-36.64,40.22,8.29-2.08,16.42-1.55,24.68,2.29,1.33-14.96,2.96-29.44,11.96-42.51h0Z"/>
    <path class="cls-1" d="M1490.33,508.04v-11.75c0-10.37.03-20.73-.02-31.1-.02-3.97-1.85-6.38-5.01-6.53-3.5-.16-5.46,1.74-5.99,5.16-.38,2.48-1.66,4.26-4.29,3.81-2.82-.48-3.4-2.74-3.03-5.31.93-6.5,7-11.53,13.53-11.17,6.7.37,12.12,5.91,12.19,12.96.14,13.18.05,26.36.06,39.55v4.52c5.85-.4,10.81-2.15,15.13-5.47,2.27-1.74,4.12-2.01,6.49-.15,8.1,6.36,17.02,6.94,26.45,3.41,5.79-2.16,7.51-.91,7.34,5.23-.64,22.24-17.84,43.39-40.75,49.9-4.65,1.32-9.45,2.12-13.54,3.83-1.67,1.5-3.28,4.05-5.03,4.16-1.44.09-3.06-2.74-4.27-4.68-9.99-1.44-19.77-4.24-28.51-9.93-15.93-10.36-25.1-24.85-26.15-44.04-.28-5.1,1.87-6.55,6.62-4.7,9.79,3.81,19.04,3.31,27.51-3.36,2.08-1.64,3.81-1.38,5.86.12,5.07,3.72,9.18,5.16,15.43,5.58l-.02-.04ZM1512.36,512.03c-12.37,5.02-24.32,4.94-36.66.04.31,3.66.43,6.59.82,9.48,1.38,10.22,3.18,20.44,9.93,28.65,6.48,7.87,8.75,8.13,15.11.09,8.65-10.95,9.85-24.29,10.8-38.26ZM1443.17,514.69c.06,16.43,19.83,37.92,36.68,39.41-8.71-12.64-10.4-27.09-11.64-41.56-4.38.98-8.28,2.3-12.26,2.63-4.14.34-8.36-.27-12.77-.48h-.01ZM1508.05,554.43c19.18-3.82,38.38-25.18,36.64-40.22-8.29,2.08-16.42,1.55-24.68-2.29-1.33,14.96-2.96,29.44-11.96,42.51Z"/>
    <path class="cls-1" d="M1338.43,512.15v11.75c0,10.37-.03,20.73.02,31.1.02,3.97,1.85,6.38,5.01,6.53,3.5.16,5.46-1.74,5.99-5.16.38-2.48,1.66-4.26,4.29-3.81,2.82.48,3.4,2.74,3.03,5.31-.93,6.5-7,11.53-13.53,11.17-6.7-.37-12.12-5.91-12.19-12.96-.14-13.18-.05-26.36-.06-39.55v-4.52c-5.85.4-10.81,2.15-15.13,5.47-2.27,1.74-4.12,2.01-6.49.15-8.1-6.36-17.02-6.94-26.45-3.41-5.79,2.16-7.51.91-7.34-5.23.64-22.24,17.84-43.39,40.75-49.9,4.65-1.32,9.45-2.12,13.54-3.83,1.67-1.5,3.28-4.05,5.03-4.16,1.44-.09,3.06,2.74,4.27,4.68,9.99,1.44,19.77,4.24,28.51,9.93,15.93,10.36,25.1,24.85,26.15,44.04.28,5.1-1.87,6.55-6.62,4.7-9.79-3.81-19.04-3.31-27.51,3.36-2.08,1.64-3.81,1.38-5.86-.12-5.07-3.72-9.18-5.16-15.43-5.58l.02.04ZM1316.4,508.16c12.37-5.02,24.32-4.94,36.66-.04-.31-3.66-.43-6.59-.82-9.48-1.38-10.22-3.18-20.44-9.93-28.65-6.48-7.87-8.75-8.13-15.11-.09-8.65,10.95-9.85,24.29-10.8,38.26h0ZM1385.59,505.5c-.06-16.43-19.83-37.92-36.68-39.41,8.71,12.64,10.4,27.09,11.64,41.56,4.38-.98,8.28-2.3,12.26-2.63,4.14-.34,8.36.27,12.77.48h.01ZM1320.71,465.76c-19.18,3.82-38.38,25.18-36.64,40.22,8.29-2.08,16.42-1.55,24.68,2.29,1.33-14.96,2.96-29.44,11.96-42.51h0Z"/>
    <path class="cls-1" d="M1171.69,508.04v-11.75c0-10.37.03-20.73-.02-31.1-.02-3.97-1.85-6.38-5.01-6.53-3.5-.16-5.46,1.74-5.99,5.16-.38,2.48-1.66,4.26-4.29,3.81-2.82-.48-3.4-2.74-3.03-5.31.93-6.5,7-11.53,13.53-11.17,6.7.37,12.12,5.91,12.19,12.96.14,13.18.05,26.36.06,39.55v4.52c5.85-.4,10.81-2.15,15.13-5.47,2.27-1.74,4.12-2.01,6.49-.15,8.1,6.36,17.02,6.94,26.45,3.41,5.79-2.16,7.51-.91,7.34,5.23-.64,22.24-17.84,43.39-40.75,49.9-4.65,1.32-9.45,2.12-13.54,3.83-1.67,1.5-3.28,4.05-5.03,4.16-1.44.09-3.06-2.74-4.27-4.68-9.99-1.44-19.77-4.24-28.51-9.93-15.93-10.36-25.1-24.85-26.15-44.04-.28-5.1,1.87-6.55,6.62-4.7,9.79,3.81,19.04,3.31,27.51-3.36,2.08-1.64,3.81-1.38,5.86.12,5.07,3.72,9.18,5.16,15.43,5.58l-.02-.04ZM1193.72,512.03c-12.37,5.02-24.32,4.94-36.66.04.31,3.66.43,6.59.82,9.48,1.38,10.22,3.18,20.44,9.93,28.65,6.48,7.87,8.75,8.13,15.11.09,8.65-10.95,9.85-24.29,10.8-38.26ZM1124.52,514.69c.06,16.43,19.83,37.92,36.68,39.41-8.71-12.64-10.4-27.09-11.64-41.56-4.38.98-8.28,2.3-12.26,2.63-4.14.34-8.36-.27-12.77-.48h-.01ZM1189.41,554.43c19.18-3.82,38.38-25.18,36.64-40.22-8.29,2.08-16.42,1.55-24.68-2.29-1.33,14.96-2.96,29.44-11.96,42.51Z"/>
    <path class="cls-1" d="M1657.07,512.15v11.75c0,10.37-.03,20.73.02,31.1.02,3.97,1.85,6.38,5.01,6.53,3.5.16,5.46-1.74,5.99-5.16.38-2.48,1.66-4.26,4.29-3.81,2.82.48,3.4,2.74,3.03,5.31-.93,6.5-7,11.53-13.53,11.17-6.7-.37-12.12-5.91-12.19-12.96-.14-13.18-.05-26.36-.06-39.55v-4.52c-5.85.4-10.81,2.15-15.13,5.47-2.27,1.74-4.12,2.01-6.49.15-8.1-6.36-17.02-6.94-26.45-3.41-5.79,2.16-7.51.91-7.34-5.23.64-22.24,17.84-43.39,40.75-49.9,4.65-1.32,9.45-2.12,13.54-3.83,1.67-1.5,3.28-4.05,5.03-4.16,1.44-.09,3.06,2.74,4.27,4.68,9.99,1.44,19.77,4.24,28.51,9.93,15.93,10.36,25.1,24.85,26.15,44.04.28,5.1-1.87,6.55-6.62,4.7-9.79-3.81-19.04-3.31-27.51,3.36-2.08,1.64-3.81,1.38-5.86-.12-5.07-3.72-9.18-5.16-15.43-5.58l.02.04ZM1635.04,508.16c12.37-5.02,24.32-4.94,36.66-.04-.31-3.66-.43-6.59-.82-9.48-1.38-10.22-3.18-20.44-9.93-28.65-6.48-7.87-8.75-8.13-15.11-.09-8.65,10.95-9.85,24.29-10.8,38.26h0ZM1704.24,505.5c-.06-16.43-19.83-37.92-36.68-39.41,8.71,12.64,10.4,27.09,11.64,41.56,4.38-.98,8.28-2.3,12.26-2.63,4.14-.34,8.36.27,12.77.48h.01ZM1639.35,465.76c-19.18,3.82-38.38,25.18-36.64,40.22,8.29-2.08,16.42-1.55,24.68,2.29,1.33-14.96,2.96-29.44,11.96-42.51h0Z"/>
    <path class="cls-1" d="M853.04,508.04v-11.75c0-10.37.03-20.73-.02-31.1-.02-3.97-1.85-6.38-5.01-6.53-3.5-.16-5.46,1.74-5.99,5.16-.38,2.48-1.66,4.26-4.29,3.81-2.82-.48-3.4-2.74-3.03-5.31.93-6.5,7-11.53,13.53-11.17,6.7.37,12.12,5.91,12.19,12.96.14,13.18.05,26.36.06,39.55v4.52c5.85-.4,10.81-2.15,15.13-5.47,2.27-1.74,4.12-2.01,6.49-.15,8.1,6.36,17.02,6.94,26.45,3.41,5.79-2.16,7.51-.91,7.34,5.23-.64,22.24-17.84,43.39-40.75,49.9-4.65,1.32-9.45,2.12-13.54,3.83-1.67,1.5-3.28,4.05-5.03,4.16-1.44.09-3.06-2.74-4.27-4.68-9.99-1.44-19.77-4.24-28.51-9.93-15.93-10.36-25.1-24.85-26.15-44.04-.28-5.1,1.87-6.55,6.62-4.7,9.79,3.81,19.04,3.31,27.51-3.36,2.08-1.64,3.81-1.38,5.86.12,5.07,3.72,9.18,5.16,15.43,5.58l-.02-.04ZM875.08,512.03c-12.37,5.02-24.32,4.94-36.66.04.31,3.66.43,6.59.82,9.48,1.38,10.22,3.18,20.44,9.93,28.65,6.48,7.87,8.75,8.13,15.11.09,8.65-10.95,9.85-24.29,10.8-38.26ZM805.88,514.69c.06,16.43,19.83,37.92,36.68,39.41-8.71-12.64-10.4-27.09-11.64-41.56-4.38.98-8.28,2.3-12.26,2.63-4.14.34-8.36-.27-12.77-.48h0ZM870.76,554.43c19.18-3.82,38.38-25.18,36.64-40.22-8.29,2.08-16.42,1.55-24.68-2.29-1.33,14.96-2.96,29.44-11.96,42.51Z"/>
    <path class="cls-1" d="M534.4,508.04v-11.75c0-10.37.03-20.73-.02-31.1-.02-3.97-1.85-6.38-5.01-6.53-3.5-.16-5.46,1.74-5.99,5.16-.38,2.48-1.66,4.26-4.29,3.81-2.82-.48-3.4-2.74-3.03-5.31.93-6.5,7-11.53,13.53-11.17,6.7.37,12.12,5.91,12.19,12.96.14,13.18.05,26.36.06,39.55v4.52c5.85-.4,10.81-2.15,15.13-5.47,2.27-1.74,4.12-2.01,6.49-.15,8.1,6.36,17.02,6.94,26.45,3.41,5.79-2.16,7.51-.91,7.34,5.23-.64,22.24-17.84,43.39-40.75,49.9-4.65,1.32-9.45,2.12-13.54,3.83-1.67,1.5-3.28,4.05-5.03,4.16-1.44.09-3.06-2.74-4.27-4.68-9.99-1.44-19.77-4.24-28.51-9.93-15.93-10.36-25.1-24.85-26.15-44.04-.28-5.1,1.87-6.55,6.62-4.7,9.79,3.81,19.04,3.31,27.51-3.36,2.08-1.64,3.81-1.38,5.86.12,5.07,3.72,9.18,5.16,15.43,5.58l-.02-.04ZM556.43,512.03c-12.37,5.02-24.32,4.94-36.66.04.31,3.66.43,6.59.82,9.48,1.38,10.22,3.18,20.44,9.93,28.65,6.48,7.87,8.75,8.13,15.11.09,8.65-10.95,9.85-24.29,10.8-38.26ZM487.24,514.69c.06,16.43,19.83,37.92,36.68,39.41-8.71-12.64-10.4-27.09-11.64-41.56-4.38.98-8.28,2.3-12.26,2.63-4.14.34-8.36-.27-12.77-.48h-.01ZM552.12,554.43c19.18-3.82,38.38-25.18,36.64-40.22-8.29,2.08-16.42,1.55-24.68-2.29-1.33,14.96-2.96,29.44-11.96,42.51Z"/>
    <path class="cls-1" d="M215.76,508.04v-11.75c0-10.37.03-20.73-.02-31.1-.02-3.97-1.85-6.38-5.01-6.53-3.5-.16-5.46,1.74-5.99,5.16-.38,2.48-1.66,4.26-4.29,3.81-2.82-.48-3.4-2.74-3.03-5.31.93-6.5,7-11.53,13.53-11.17,6.7.37,12.12,5.91,12.19,12.96.14,13.18.05,26.36.06,39.55v4.52c5.85-.4,10.81-2.15,15.13-5.47,2.27-1.74,4.12-2.01,6.49-.15,8.1,6.36,17.02,6.94,26.45,3.41,5.79-2.16,7.51-.91,7.34,5.23-.64,22.24-17.84,43.39-40.75,49.9-4.65,1.32-9.45,2.12-13.54,3.83-1.67,1.5-3.28,4.05-5.03,4.16-1.44.09-3.06-2.74-4.27-4.68-9.99-1.44-19.77-4.24-28.51-9.93-15.93-10.36-25.1-24.85-26.15-44.04-.28-5.1,1.87-6.55,6.62-4.7,9.79,3.81,19.04,3.31,27.51-3.36,2.08-1.64,3.81-1.38,5.86.12,5.07,3.72,9.18,5.16,15.43,5.58l-.02-.04ZM237.79,512.03c-12.37,5.02-24.32,4.94-36.66.04.31,3.66.43,6.59.82,9.48,1.38,10.22,3.18,20.44,9.93,28.65,6.48,7.87,8.75,8.13,15.11.09,8.65-10.95,9.85-24.29,10.8-38.26ZM168.6,514.69c.06,16.43,19.83,37.92,36.68,39.41-8.71-12.64-10.4-27.09-11.64-41.56-4.38.98-8.28,2.3-12.26,2.63-4.14.34-8.36-.27-12.77-.48h0ZM233.48,554.43c19.18-3.82,38.38-25.18,36.64-40.22-8.29,2.08-16.42,1.55-24.68-2.29-1.33,14.96-2.96,29.44-11.96,42.51Z"/>
    <path class="cls-1" d="M63.86,662.18v11.75c0,10.37-.03,20.73.02,31.1.02,3.97,1.85,6.38,5.01,6.53,3.5.16,5.46-1.74,5.99-5.16.38-2.48,1.66-4.26,4.29-3.81,2.82.48,3.4,2.74,3.03,5.31-.93,6.5-7,11.53-13.53,11.17-6.7-.37-12.12-5.91-12.19-12.96-.14-13.18-.05-26.36-.06-39.55v-4.52c-5.85.4-10.81,2.15-15.13,5.47-2.27,1.74-4.12,2.01-6.49.15-8.1-6.36-17.02-6.94-26.45-3.41-5.79,2.16-7.51.91-7.34-5.23.64-22.24,17.84-43.39,40.75-49.9,4.65-1.32,9.45-2.12,13.54-3.83,1.67-1.5,3.28-4.05,5.03-4.16,1.44-.09,3.06,2.74,4.27,4.68,9.99,1.44,19.77,4.24,28.51,9.93,15.93,10.36,25.1,24.85,26.15,44.04.28,5.1-1.87,6.55-6.62,4.7-9.79-3.81-19.04-3.31-27.51,3.36-2.08,1.64-3.81,1.38-5.86-.12-5.07-3.72-9.18-5.16-15.43-5.58l.02.04ZM41.83,658.19c12.37-5.02,24.32-4.94,36.66-.04-.31-3.66-.43-6.59-.82-9.48-1.38-10.22-3.18-20.44-9.93-28.65-6.48-7.87-8.75-8.13-15.11-.09-8.65,10.95-9.85,24.29-10.8,38.26ZM111.02,655.53c-.06-16.43-19.83-37.92-36.68-39.41,8.71,12.64,10.4,27.09,11.64,41.56,4.38-.98,8.28-2.3,12.26-2.63,4.14-.34,8.36.27,12.77.48h0ZM46.14,615.79c-19.18,3.82-38.38,25.18-36.64,40.22,8.29-2.08,16.42-1.55,24.68,2.29,1.33-14.96,2.96-29.44,11.96-42.51h0Z"/>
    <path class="cls-1" d="M382.5,662.18v11.75c0,10.37-.03,20.73.02,31.1.02,3.97,1.85,6.38,5.01,6.53,3.5.16,5.46-1.74,5.99-5.16.38-2.48,1.66-4.26,4.29-3.81,2.82.48,3.4,2.74,3.03,5.31-.93,6.5-7,11.53-13.53,11.17-6.7-.37-12.12-5.91-12.19-12.96-.14-13.18-.05-26.36-.06-39.55v-4.52c-5.85.4-10.81,2.15-15.13,5.47-2.27,1.74-4.12,2.01-6.49.15-8.1-6.36-17.02-6.94-26.45-3.41-5.79,2.16-7.51.91-7.34-5.23.64-22.24,17.84-43.39,40.75-49.9,4.65-1.32,9.45-2.12,13.54-3.83,1.67-1.5,3.28-4.05,5.03-4.16,1.44-.09,3.06,2.74,4.27,4.68,9.99,1.44,19.77,4.24,28.51,9.93,15.93,10.36,25.1,24.85,26.15,44.04.28,5.1-1.87,6.55-6.62,4.7-9.79-3.81-19.04-3.31-27.51,3.36-2.08,1.64-3.81,1.38-5.86-.12-5.07-3.72-9.18-5.16-15.43-5.58l.02.04ZM360.47,658.19c12.37-5.02,24.32-4.94,36.66-.04-.31-3.66-.43-6.59-.82-9.48-1.38-10.22-3.18-20.44-9.93-28.65-6.48-7.87-8.75-8.13-15.11-.09-8.65,10.95-9.85,24.29-10.8,38.26h0ZM429.66,655.53c-.06-16.43-19.83-37.92-36.68-39.41,8.71,12.64,10.4,27.09,11.64,41.56,4.38-.98,8.28-2.3,12.26-2.63,4.14-.34,8.36.27,12.77.48h0ZM364.78,615.79c-19.18,3.82-38.38,25.18-36.64,40.22,8.29-2.08,16.42-1.55,24.68,2.29,1.33-14.96,2.96-29.44,11.96-42.51h0Z"/>
    <path class="cls-1" d="M701.15,662.18v11.75c0,10.37-.03,20.73.02,31.1.02,3.97,1.85,6.38,5.01,6.53,3.5.16,5.46-1.74,5.99-5.16.38-2.48,1.66-4.26,4.29-3.81,2.82.48,3.4,2.74,3.03,5.31-.93,6.5-7,11.53-13.53,11.17-6.7-.37-12.12-5.91-12.19-12.96-.14-13.18-.05-26.36-.06-39.55v-4.52c-5.85.4-10.81,2.15-15.13,5.47-2.27,1.74-4.12,2.01-6.49.15-8.1-6.36-17.02-6.94-26.45-3.41-5.79,2.16-7.51.91-7.34-5.23.64-22.24,17.84-43.39,40.75-49.9,4.65-1.32,9.45-2.12,13.54-3.83,1.67-1.5,3.28-4.05,5.03-4.16,1.44-.09,3.06,2.74,4.27,4.68,9.99,1.44,19.77,4.24,28.51,9.93,15.93,10.36,25.1,24.85,26.15,44.04.28,5.1-1.87,6.55-6.62,4.7-9.79-3.81-19.04-3.31-27.51,3.36-2.08,1.64-3.81,1.38-5.86-.12-5.07-3.72-9.18-5.16-15.43-5.58l.02.04ZM679.11,658.19c12.37-5.02,24.32-4.94,36.66-.04-.31-3.66-.43-6.59-.82-9.48-1.38-10.22-3.18-20.44-9.93-28.65-6.48-7.87-8.75-8.13-15.11-.09-8.65,10.95-9.85,24.29-10.8,38.26ZM748.31,655.53c-.06-16.43-19.83-37.92-36.68-39.41,8.71,12.64,10.4,27.09,11.64,41.56,4.38-.98,8.28-2.3,12.26-2.63,4.14-.34,8.36.27,12.77.48h0ZM683.42,615.79c-19.18,3.82-38.38,25.18-36.64,40.22,8.29-2.08,16.42-1.55,24.68,2.29,1.33-14.96,2.96-29.44,11.96-42.51h0Z"/>
    <path class="cls-1" d="M1808.97,658.07v-11.75c0-10.37.03-20.73-.02-31.1-.02-3.97-1.85-6.38-5.01-6.53-3.5-.16-5.46,1.74-5.99,5.16-.38,2.48-1.66,4.26-4.29,3.81-2.82-.48-3.4-2.74-3.03-5.31.93-6.5,7-11.53,13.53-11.17,6.7.37,12.12,5.91,12.19,12.96.14,13.18.05,26.36.06,39.55v4.52c5.85-.4,10.81-2.15,15.13-5.47,2.27-1.74,4.12-2.01,6.49-.15,8.1,6.36,17.02,6.94,26.45,3.41,5.79-2.16,7.51-.91,7.34,5.23-.64,22.24-17.84,43.39-40.75,49.9-4.65,1.32-9.45,2.12-13.54,3.83-1.67,1.5-3.28,4.05-5.03,4.16-1.44.09-3.06-2.74-4.27-4.68-9.99-1.44-19.77-4.24-28.51-9.93-15.93-10.36-25.1-24.85-26.15-44.04-.28-5.1,1.87-6.55,6.62-4.7,9.79,3.81,19.04,3.31,27.51-3.36,2.08-1.64,3.81-1.38,5.86.12,5.07,3.72,9.18,5.16,15.43,5.58l-.02-.04ZM1831.01,662.07c-12.37,5.02-24.32,4.94-36.66.04.31,3.66.43,6.59.82,9.48,1.38,10.22,3.18,20.44,9.93,28.65,6.48,7.87,8.75,8.13,15.11.09,8.65-10.95,9.85-24.29,10.8-38.26ZM1761.81,664.72c.06,16.43,19.83,37.92,36.68,39.41-8.71-12.64-10.4-27.09-11.64-41.56-4.38.98-8.28,2.3-12.26,2.63-4.14.34-8.36-.27-12.77-.48h-.01ZM1826.69,704.46c19.18-3.82,38.38-25.18,36.64-40.22-8.29,2.08-16.42,1.55-24.68-2.29-1.33,14.96-2.96,29.44-11.96,42.51Z"/>
    <path class="cls-1" d="M1019.79,662.18v11.75c0,10.37-.03,20.73.02,31.1.02,3.97,1.85,6.38,5.01,6.53,3.5.16,5.46-1.74,5.99-5.16.38-2.48,1.66-4.26,4.29-3.81,2.82.48,3.4,2.74,3.03,5.31-.93,6.5-7,11.53-13.53,11.17-6.7-.37-12.12-5.91-12.19-12.96-.14-13.18-.05-26.36-.06-39.55v-4.52c-5.85.4-10.81,2.15-15.13,5.47-2.27,1.74-4.12,2.01-6.49.15-8.1-6.36-17.02-6.94-26.45-3.41-5.79,2.16-7.51.91-7.34-5.23.64-22.24,17.84-43.39,40.75-49.9,4.65-1.32,9.45-2.12,13.54-3.83,1.67-1.5,3.28-4.05,5.03-4.16,1.44-.09,3.06,2.74,4.27,4.68,9.99,1.44,19.77,4.24,28.51,9.93,15.93,10.36,25.1,24.85,26.15,44.04.28,5.1-1.87,6.55-6.62,4.7-9.79-3.81-19.04-3.31-27.51,3.36-2.08,1.64-3.81,1.38-5.86-.12-5.07-3.72-9.18-5.16-15.43-5.58l.02.04ZM997.75,658.19c12.37-5.02,24.32-4.94,36.66-.04-.31-3.66-.43-6.59-.82-9.48-1.38-10.22-3.18-20.44-9.93-28.65-6.48-7.87-8.75-8.13-15.11-.09-8.65,10.95-9.85,24.29-10.8,38.26h0ZM1066.95,655.53c-.06-16.43-19.83-37.92-36.68-39.41,8.71,12.64,10.4,27.09,11.64,41.56,4.38-.98,8.28-2.3,12.26-2.63,4.14-.34,8.36.27,12.77.48h.01ZM1002.07,615.79c-19.18,3.82-38.38,25.18-36.64,40.22,8.29-2.08,16.42-1.55,24.68,2.29,1.33-14.96,2.96-29.44,11.96-42.51h0Z"/>
    <path class="cls-1" d="M1490.33,658.07v-11.75c0-10.37.03-20.73-.02-31.1-.02-3.97-1.85-6.38-5.01-6.53-3.5-.16-5.46,1.74-5.99,5.16-.38,2.48-1.66,4.26-4.29,3.81-2.82-.48-3.4-2.74-3.03-5.31.93-6.5,7-11.53,13.53-11.17,6.7.37,12.12,5.91,12.19,12.96.14,13.18.05,26.36.06,39.55v4.52c5.85-.4,10.81-2.15,15.13-5.47,2.27-1.74,4.12-2.01,6.49-.15,8.1,6.36,17.02,6.94,26.45,3.41,5.79-2.16,7.51-.91,7.34,5.23-.64,22.24-17.84,43.39-40.75,49.9-4.65,1.32-9.45,2.12-13.54,3.83-1.67,1.5-3.28,4.05-5.03,4.16-1.44.09-3.06-2.74-4.27-4.68-9.99-1.44-19.77-4.24-28.51-9.93-15.93-10.36-25.1-24.85-26.15-44.04-.28-5.1,1.87-6.55,6.62-4.7,9.79,3.81,19.04,3.31,27.51-3.36,2.08-1.64,3.81-1.38,5.86.12,5.07,3.72,9.18,5.16,15.43,5.58l-.02-.04ZM1512.36,662.07c-12.37,5.02-24.32,4.94-36.66.04.31,3.66.43,6.59.82,9.48,1.38,10.22,3.18,20.44,9.93,28.65,6.48,7.87,8.75,8.13,15.11.09,8.65-10.95,9.85-24.29,10.8-38.26ZM1443.17,664.72c.06,16.43,19.83,37.92,36.68,39.41-8.71-12.64-10.4-27.09-11.64-41.56-4.38.98-8.28,2.3-12.26,2.63-4.14.34-8.36-.27-12.77-.48h-.01ZM1508.05,704.46c19.18-3.82,38.38-25.18,36.64-40.22-8.29,2.08-16.42,1.55-24.68-2.29-1.33,14.96-2.96,29.44-11.96,42.51Z"/>
    <path class="cls-1" d="M1338.43,662.18v11.75c0,10.37-.03,20.73.02,31.1.02,3.97,1.85,6.38,5.01,6.53,3.5.16,5.46-1.74,5.99-5.16.38-2.48,1.66-4.26,4.29-3.81,2.82.48,3.4,2.74,3.03,5.31-.93,6.5-7,11.53-13.53,11.17-6.7-.37-12.12-5.91-12.19-12.96-.14-13.18-.05-26.36-.06-39.55v-4.52c-5.85.4-10.81,2.15-15.13,5.47-2.27,1.74-4.12,2.01-6.49.15-8.1-6.36-17.02-6.94-26.45-3.41-5.79,2.16-7.51.91-7.34-5.23.64-22.24,17.84-43.39,40.75-49.9,4.65-1.32,9.45-2.12,13.54-3.83,1.67-1.5,3.28-4.05,5.03-4.16,1.44-.09,3.06,2.74,4.27,4.68,9.99,1.44,19.77,4.24,28.51,9.93,15.93,10.36,25.1,24.85,26.15,44.04.28,5.1-1.87,6.55-6.62,4.7-9.79-3.81-19.04-3.31-27.51,3.36-2.08,1.64-3.81,1.38-5.86-.12-5.07-3.72-9.18-5.16-15.43-5.58l.02.04ZM1316.4,658.19c12.37-5.02,24.32-4.94,36.66-.04-.31-3.66-.43-6.59-.82-9.48-1.38-10.22-3.18-20.44-9.93-28.65-6.48-7.87-8.75-8.13-15.11-.09-8.65,10.95-9.85,24.29-10.8,38.26ZM1385.59,655.53c-.06-16.43-19.83-37.92-36.68-39.41,8.71,12.64,10.4,27.09,11.64,41.56,4.38-.98,8.28-2.3,12.26-2.63,4.14-.34,8.36.27,12.77.48h.01ZM1320.71,615.79c-19.18,3.82-38.38,25.18-36.64,40.22,8.29-2.08,16.42-1.55,24.68,2.29,1.33-14.96,2.96-29.44,11.96-42.51h0Z"/>
    <path class="cls-1" d="M1171.69,658.07v-11.75c0-10.37.03-20.73-.02-31.1-.02-3.97-1.85-6.38-5.01-6.53-3.5-.16-5.46,1.74-5.99,5.16-.38,2.48-1.66,4.26-4.29,3.81-2.82-.48-3.4-2.74-3.03-5.31.93-6.5,7-11.53,13.53-11.17,6.7.37,12.12,5.91,12.19,12.96.14,13.18.05,26.36.06,39.55v4.52c5.85-.4,10.81-2.15,15.13-5.47,2.27-1.74,4.12-2.01,6.49-.15,8.1,6.36,17.02,6.94,26.45,3.41,5.79-2.16,7.51-.91,7.34,5.23-.64,22.24-17.84,43.39-40.75,49.9-4.65,1.32-9.45,2.12-13.54,3.83-1.67,1.5-3.28,4.05-5.03,4.16-1.44.09-3.06-2.74-4.27-4.68-9.99-1.44-19.77-4.24-28.51-9.93-15.93-10.36-25.1-24.85-26.15-44.04-.28-5.1,1.87-6.55,6.62-4.7,9.79,3.81,19.04,3.31,27.51-3.36,2.08-1.64,3.81-1.38,5.86.12,5.07,3.72,9.18,5.16,15.43,5.58l-.02-.04ZM1193.72,662.07c-12.37,5.02-24.32,4.94-36.66.04.31,3.66.43,6.59.82,9.48,1.38,10.22,3.18,20.44,9.93,28.65,6.48,7.87,8.75,8.13,15.11.09,8.65-10.95,9.85-24.29,10.8-38.26ZM1124.52,664.72c.06,16.43,19.83,37.92,36.68,39.41-8.71-12.64-10.4-27.09-11.64-41.56-4.38.98-8.28,2.3-12.26,2.63-4.14.34-8.36-.27-12.77-.48h-.01ZM1189.41,704.46c19.18-3.82,38.38-25.18,36.64-40.22-8.29,2.08-16.42,1.55-24.68-2.29-1.33,14.96-2.96,29.44-11.96,42.51Z"/>
    <path class="cls-1" d="M1657.07,662.18v11.75c0,10.37-.03,20.73.02,31.1.02,3.97,1.85,6.38,5.01,6.53,3.5.16,5.46-1.74,5.99-5.16.38-2.48,1.66-4.26,4.29-3.81,2.82.48,3.4,2.74,3.03,5.31-.93,6.5-7,11.53-13.53,11.17-6.7-.37-12.12-5.91-12.19-12.96-.14-13.18-.05-26.36-.06-39.55v-4.52c-5.85.4-10.81,2.15-15.13,5.47-2.27,1.74-4.12,2.01-6.49.15-8.1-6.36-17.02-6.94-26.45-3.41-5.79,2.16-7.51.91-7.34-5.23.64-22.24,17.84-43.39,40.75-49.9,4.65-1.32,9.45-2.12,13.54-3.83,1.67-1.5,3.28-4.05,5.03-4.16,1.44-.09,3.06,2.74,4.27,4.68,9.99,1.44,19.77,4.24,28.51,9.93,15.93,10.36,25.1,24.85,26.15,44.04.28,5.1-1.87,6.55-6.62,4.7-9.79-3.81-19.04-3.31-27.51,3.36-2.08,1.64-3.81,1.38-5.86-.12-5.07-3.72-9.18-5.16-15.43-5.58l.02.04ZM1635.04,658.19c12.37-5.02,24.32-4.94,36.66-.04-.31-3.66-.43-6.59-.82-9.48-1.38-10.22-3.18-20.44-9.93-28.65-6.48-7.87-8.75-8.13-15.11-.09-8.65,10.95-9.85,24.29-10.8,38.26ZM1704.24,655.53c-.06-16.43-19.83-37.92-36.68-39.41,8.71,12.64,10.4,27.09,11.64,41.56,4.38-.98,8.28-2.3,12.26-2.63,4.14-.34,8.36.27,12.77.48h.01ZM1639.35,615.79c-19.18,3.82-38.38,25.18-36.64,40.22,8.29-2.08,16.42-1.55,24.68,2.29,1.33-14.96,2.96-29.44,11.96-42.51h0Z"/>
    <path class="cls-1" d="M853.04,658.07v-11.75c0-10.37.03-20.73-.02-31.1-.02-3.97-1.85-6.38-5.01-6.53-3.5-.16-5.46,1.74-5.99,5.16-.38,2.48-1.66,4.26-4.29,3.81-2.82-.48-3.4-2.74-3.03-5.31.93-6.5,7-11.53,13.53-11.17,6.7.37,12.12,5.91,12.19,12.96.14,13.18.05,26.36.06,39.55v4.52c5.85-.4,10.81-2.15,15.13-5.47,2.27-1.74,4.12-2.01,6.49-.15,8.1,6.36,17.02,6.94,26.45,3.41,5.79-2.16,7.51-.91,7.34,5.23-.64,22.24-17.84,43.39-40.75,49.9-4.65,1.32-9.45,2.12-13.54,3.83-1.67,1.5-3.28,4.05-5.03,4.16-1.44.09-3.06-2.74-4.27-4.68-9.99-1.44-19.77-4.24-28.51-9.93-15.93-10.36-25.1-24.85-26.15-44.04-.28-5.1,1.87-6.55,6.62-4.7,9.79,3.81,19.04,3.31,27.51-3.36,2.08-1.64,3.81-1.38,5.86.12,5.07,3.72,9.18,5.16,15.43,5.58l-.02-.04ZM875.08,662.07c-12.37,5.02-24.32,4.94-36.66.04.31,3.66.43,6.59.82,9.48,1.38,10.22,3.18,20.44,9.93,28.65,6.48,7.87,8.75,8.13,15.11.09,8.65-10.95,9.85-24.29,10.8-38.26ZM805.88,664.72c.06,16.43,19.83,37.92,36.68,39.41-8.71-12.64-10.4-27.09-11.64-41.56-4.38.98-8.28,2.3-12.26,2.63-4.14.34-8.36-.27-12.77-.48h0ZM870.76,704.46c19.18-3.82,38.38-25.18,36.64-40.22-8.29,2.08-16.42,1.55-24.68-2.29-1.33,14.96-2.96,29.44-11.96,42.51Z"/>
    <path class="cls-1" d="M534.4,658.07v-11.75c0-10.37.03-20.73-.02-31.1-.02-3.97-1.85-6.38-5.01-6.53-3.5-.16-5.46,1.74-5.99,5.16-.38,2.48-1.66,4.26-4.29,3.81-2.82-.48-3.4-2.74-3.03-5.31.93-6.5,7-11.53,13.53-11.17,6.7.37,12.12,5.91,12.19,12.96.14,13.18.05,26.36.06,39.55v4.52c5.85-.4,10.81-2.15,15.13-5.47,2.27-1.74,4.12-2.01,6.49-.15,8.1,6.36,17.02,6.94,26.45,3.41,5.79-2.16,7.51-.91,7.34,5.23-.64,22.24-17.84,43.39-40.75,49.9-4.65,1.32-9.45,2.12-13.54,3.83-1.67,1.5-3.28,4.05-5.03,4.16-1.44.09-3.06-2.74-4.27-4.68-9.99-1.44-19.77-4.24-28.51-9.93-15.93-10.36-25.1-24.85-26.15-44.04-.28-5.1,1.87-6.55,6.62-4.7,9.79,3.81,19.04,3.31,27.51-3.36,2.08-1.64,3.81-1.38,5.86.12,5.07,3.72,9.18,5.16,15.43,5.58l-.02-.04ZM556.43,662.07c-12.37,5.02-24.32,4.94-36.66.04.31,3.66.43,6.59.82,9.48,1.38,10.22,3.18,20.44,9.93,28.65,6.48,7.87,8.75,8.13,15.11.09,8.65-10.95,9.85-24.29,10.8-38.26ZM487.24,664.72c.06,16.43,19.83,37.92,36.68,39.41-8.71-12.64-10.4-27.09-11.64-41.56-4.38.98-8.28,2.3-12.26,2.63-4.14.34-8.36-.27-12.77-.48h-.01ZM552.12,704.46c19.18-3.82,38.38-25.18,36.64-40.22-8.29,2.08-16.42,1.55-24.68-2.29-1.33,14.96-2.96,29.44-11.96,42.51Z"/>
    <path class="cls-1" d="M215.76,658.07v-11.75c0-10.37.03-20.73-.02-31.1-.02-3.97-1.85-6.38-5.01-6.53-3.5-.16-5.46,1.74-5.99,5.16-.38,2.48-1.66,4.26-4.29,3.81-2.82-.48-3.4-2.74-3.03-5.31.93-6.5,7-11.53,13.53-11.17,6.7.37,12.12,5.91,12.19,12.96.14,13.18.05,26.36.06,39.55v4.52c5.85-.4,10.81-2.15,15.13-5.47,2.27-1.74,4.12-2.01,6.49-.15,8.1,6.36,17.02,6.94,26.45,3.41,5.79-2.16,7.51-.91,7.34,5.23-.64,22.24-17.84,43.39-40.75,49.9-4.65,1.32-9.45,2.12-13.54,3.83-1.67,1.5-3.28,4.05-5.03,4.16-1.44.09-3.06-2.74-4.27-4.68-9.99-1.44-19.77-4.24-28.51-9.93-15.93-10.36-25.1-24.85-26.15-44.04-.28-5.1,1.87-6.55,6.62-4.7,9.79,3.81,19.04,3.31,27.51-3.36,2.08-1.64,3.81-1.38,5.86.12,5.07,3.72,9.18,5.16,15.43,5.58l-.02-.04ZM237.79,662.07c-12.37,5.02-24.32,4.94-36.66.04.31,3.66.43,6.59.82,9.48,1.38,10.22,3.18,20.44,9.93,28.65,6.48,7.87,8.75,8.13,15.11.09,8.65-10.95,9.85-24.29,10.8-38.26ZM168.6,664.72c.06,16.43,19.83,37.92,36.68,39.41-8.71-12.64-10.4-27.09-11.64-41.56-4.38.98-8.28,2.3-12.26,2.63-4.14.34-8.36-.27-12.77-.48h0ZM233.48,704.46c19.18-3.82,38.38-25.18,36.64-40.22-8.29,2.08-16.42,1.55-24.68-2.29-1.33,14.96-2.96,29.44-11.96,42.51Z"/>
    <path class="cls-1" d="M63.86,812.22v11.75c0,10.37-.03,20.73.02,31.1.02,3.97,1.85,6.38,5.01,6.53,3.5.16,5.46-1.74,5.99-5.16.38-2.48,1.66-4.26,4.29-3.81,2.82.48,3.4,2.74,3.03,5.31-.93,6.5-7,11.53-13.53,11.17-6.7-.37-12.12-5.91-12.19-12.96-.14-13.18-.05-26.36-.06-39.55v-4.52c-5.85.4-10.81,2.15-15.13,5.47-2.27,1.74-4.12,2.01-6.49.15-8.1-6.36-17.02-6.94-26.45-3.41-5.79,2.16-7.51.91-7.34-5.23.64-22.24,17.84-43.39,40.75-49.9,4.65-1.32,9.45-2.12,13.54-3.83,1.67-1.5,3.28-4.05,5.03-4.16,1.44-.09,3.06,2.74,4.27,4.68,9.99,1.44,19.77,4.24,28.51,9.93,15.93,10.36,25.1,24.85,26.15,44.04.28,5.1-1.87,6.55-6.62,4.7-9.79-3.81-19.04-3.31-27.51,3.36-2.08,1.64-3.81,1.38-5.86-.12-5.07-3.72-9.18-5.16-15.43-5.58l.02.04ZM41.83,808.22c12.37-5.02,24.32-4.94,36.66-.04-.31-3.66-.43-6.59-.82-9.48-1.38-10.22-3.18-20.44-9.93-28.65-6.48-7.87-8.75-8.13-15.11-.09-8.65,10.95-9.85,24.29-10.8,38.26ZM111.02,805.56c-.06-16.43-19.83-37.92-36.68-39.41,8.71,12.64,10.4,27.09,11.64,41.56,4.38-.98,8.28-2.3,12.26-2.63,4.14-.34,8.36.27,12.77.48h0ZM46.14,765.82c-19.18,3.82-38.38,25.18-36.64,40.22,8.29-2.08,16.42-1.55,24.68,2.29,1.33-14.96,2.96-29.44,11.96-42.51Z"/>
    <path class="cls-1" d="M382.5,812.22v11.75c0,10.37-.03,20.73.02,31.1.02,3.97,1.85,6.38,5.01,6.53,3.5.16,5.46-1.74,5.99-5.16.38-2.48,1.66-4.26,4.29-3.81,2.82.48,3.4,2.74,3.03,5.31-.93,6.5-7,11.53-13.53,11.17-6.7-.37-12.12-5.91-12.19-12.96-.14-13.18-.05-26.36-.06-39.55v-4.52c-5.85.4-10.81,2.15-15.13,5.47-2.27,1.74-4.12,2.01-6.49.15-8.1-6.36-17.02-6.94-26.45-3.41-5.79,2.16-7.51.91-7.34-5.23.64-22.24,17.84-43.39,40.75-49.9,4.65-1.32,9.45-2.12,13.54-3.83,1.67-1.5,3.28-4.05,5.03-4.16,1.44-.09,3.06,2.74,4.27,4.68,9.99,1.44,19.77,4.24,28.51,9.93,15.93,10.36,25.1,24.85,26.15,44.04.28,5.1-1.87,6.55-6.62,4.7-9.79-3.81-19.04-3.31-27.51,3.36-2.08,1.64-3.81,1.38-5.86-.12-5.07-3.72-9.18-5.16-15.43-5.58l.02.04ZM360.47,808.22c12.37-5.02,24.32-4.94,36.66-.04-.31-3.66-.43-6.59-.82-9.48-1.38-10.22-3.18-20.44-9.93-28.65-6.48-7.87-8.75-8.13-15.11-.09-8.65,10.95-9.85,24.29-10.8,38.26h0ZM429.66,805.56c-.06-16.43-19.83-37.92-36.68-39.41,8.71,12.64,10.4,27.09,11.64,41.56,4.38-.98,8.28-2.3,12.26-2.63,4.14-.34,8.36.27,12.77.48h0ZM364.78,765.82c-19.18,3.82-38.38,25.18-36.64,40.22,8.29-2.08,16.42-1.55,24.68,2.29,1.33-14.96,2.96-29.44,11.96-42.51Z"/>
    <path class="cls-1" d="M701.15,812.22v11.75c0,10.37-.03,20.73.02,31.1.02,3.97,1.85,6.38,5.01,6.53,3.5.16,5.46-1.74,5.99-5.16.38-2.48,1.66-4.26,4.29-3.81,2.82.48,3.4,2.74,3.03,5.31-.93,6.5-7,11.53-13.53,11.17-6.7-.37-12.12-5.91-12.19-12.96-.14-13.18-.05-26.36-.06-39.55v-4.52c-5.85.4-10.81,2.15-15.13,5.47-2.27,1.74-4.12,2.01-6.49.15-8.1-6.36-17.02-6.94-26.45-3.41-5.79,2.16-7.51.91-7.34-5.23.64-22.24,17.84-43.39,40.75-49.9,4.65-1.32,9.45-2.12,13.54-3.83,1.67-1.5,3.28-4.05,5.03-4.16,1.44-.09,3.06,2.74,4.27,4.68,9.99,1.44,19.77,4.24,28.51,9.93,15.93,10.36,25.1,24.85,26.15,44.04.28,5.1-1.87,6.55-6.62,4.7-9.79-3.81-19.04-3.31-27.51,3.36-2.08,1.64-3.81,1.38-5.86-.12-5.07-3.72-9.18-5.16-15.43-5.58l.02.04ZM679.11,808.22c12.37-5.02,24.32-4.94,36.66-.04-.31-3.66-.43-6.59-.82-9.48-1.38-10.22-3.18-20.44-9.93-28.65-6.48-7.87-8.75-8.13-15.11-.09-8.65,10.95-9.85,24.29-10.8,38.26ZM748.31,805.56c-.06-16.43-19.83-37.92-36.68-39.41,8.71,12.64,10.4,27.09,11.64,41.56,4.38-.98,8.28-2.3,12.26-2.63,4.14-.34,8.36.27,12.77.48h0ZM683.42,765.82c-19.18,3.82-38.38,25.18-36.64,40.22,8.29-2.08,16.42-1.55,24.68,2.29,1.33-14.96,2.96-29.44,11.96-42.51Z"/>
    <path class="cls-1" d="M1808.97,808.11v-11.75c0-10.37.03-20.73-.02-31.1-.02-3.97-1.85-6.38-5.01-6.53-3.5-.16-5.46,1.74-5.99,5.16-.38,2.48-1.66,4.26-4.29,3.81-2.82-.48-3.4-2.74-3.03-5.31.93-6.5,7-11.53,13.53-11.17,6.7.37,12.12,5.91,12.19,12.96.14,13.18.05,26.36.06,39.55v4.52c5.85-.4,10.81-2.15,15.13-5.47,2.27-1.74,4.12-2.01,6.49-.15,8.1,6.36,17.02,6.94,26.45,3.41,5.79-2.16,7.51-.91,7.34,5.23-.64,22.24-17.84,43.39-40.75,49.9-4.65,1.32-9.45,2.12-13.54,3.83-1.67,1.5-3.28,4.05-5.03,4.16-1.44.09-3.06-2.74-4.27-4.68-9.99-1.44-19.77-4.24-28.51-9.93-15.93-10.36-25.1-24.85-26.15-44.04-.28-5.1,1.87-6.55,6.62-4.7,9.79,3.81,19.04,3.31,27.51-3.36,2.08-1.64,3.81-1.38,5.86.12,5.07,3.72,9.18,5.16,15.43,5.58l-.02-.04ZM1831.01,812.1c-12.37,5.02-24.32,4.94-36.66.04.31,3.66.43,6.59.82,9.48,1.38,10.22,3.18,20.44,9.93,28.65,6.48,7.87,8.75,8.13,15.11.09,8.65-10.95,9.85-24.29,10.8-38.26ZM1761.81,814.76c.06,16.43,19.83,37.92,36.68,39.41-8.71-12.64-10.4-27.09-11.64-41.56-4.38.98-8.28,2.3-12.26,2.63-4.14.34-8.36-.27-12.77-.48h-.01ZM1826.69,854.5c19.18-3.82,38.38-25.18,36.64-40.22-8.29,2.08-16.42,1.55-24.68-2.29-1.33,14.96-2.96,29.44-11.96,42.51h0Z"/>
    <path class="cls-1" d="M1019.79,812.22v11.75c0,10.37-.03,20.73.02,31.1.02,3.97,1.85,6.38,5.01,6.53,3.5.16,5.46-1.74,5.99-5.16.38-2.48,1.66-4.26,4.29-3.81,2.82.48,3.4,2.74,3.03,5.31-.93,6.5-7,11.53-13.53,11.17-6.7-.37-12.12-5.91-12.19-12.96-.14-13.18-.05-26.36-.06-39.55v-4.52c-5.85.4-10.81,2.15-15.13,5.47-2.27,1.74-4.12,2.01-6.49.15-8.1-6.36-17.02-6.94-26.45-3.41-5.79,2.16-7.51.91-7.34-5.23.64-22.24,17.84-43.39,40.75-49.9,4.65-1.32,9.45-2.12,13.54-3.83,1.67-1.5,3.28-4.05,5.03-4.16,1.44-.09,3.06,2.74,4.27,4.68,9.99,1.44,19.77,4.24,28.51,9.93,15.93,10.36,25.1,24.85,26.15,44.04.28,5.1-1.87,6.55-6.62,4.7-9.79-3.81-19.04-3.31-27.51,3.36-2.08,1.64-3.81,1.38-5.86-.12-5.07-3.72-9.18-5.16-15.43-5.58l.02.04ZM997.75,808.22c12.37-5.02,24.32-4.94,36.66-.04-.31-3.66-.43-6.59-.82-9.48-1.38-10.22-3.18-20.44-9.93-28.65-6.48-7.87-8.75-8.13-15.11-.09-8.65,10.95-9.85,24.29-10.8,38.26h0ZM1066.95,805.56c-.06-16.43-19.83-37.92-36.68-39.41,8.71,12.64,10.4,27.09,11.64,41.56,4.38-.98,8.28-2.3,12.26-2.63,4.14-.34,8.36.27,12.77.48h.01ZM1002.07,765.82c-19.18,3.82-38.38,25.18-36.64,40.22,8.29-2.08,16.42-1.55,24.68,2.29,1.33-14.96,2.96-29.44,11.96-42.51Z"/>
    <path class="cls-1" d="M1490.33,808.11v-11.75c0-10.37.03-20.73-.02-31.1-.02-3.97-1.85-6.38-5.01-6.53-3.5-.16-5.46,1.74-5.99,5.16-.38,2.48-1.66,4.26-4.29,3.81-2.82-.48-3.4-2.74-3.03-5.31.93-6.5,7-11.53,13.53-11.17,6.7.37,12.12,5.91,12.19,12.96.14,13.18.05,26.36.06,39.55v4.52c5.85-.4,10.81-2.15,15.13-5.47,2.27-1.74,4.12-2.01,6.49-.15,8.1,6.36,17.02,6.94,26.45,3.41,5.79-2.16,7.51-.91,7.34,5.23-.64,22.24-17.84,43.39-40.75,49.9-4.65,1.32-9.45,2.12-13.54,3.83-1.67,1.5-3.28,4.05-5.03,4.16-1.44.09-3.06-2.74-4.27-4.68-9.99-1.44-19.77-4.24-28.51-9.93-15.93-10.36-25.1-24.85-26.15-44.04-.28-5.1,1.87-6.55,6.62-4.7,9.79,3.81,19.04,3.31,27.51-3.36,2.08-1.64,3.81-1.38,5.86.12,5.07,3.72,9.18,5.16,15.43,5.58l-.02-.04ZM1512.36,812.1c-12.37,5.02-24.32,4.94-36.66.04.31,3.66.43,6.59.82,9.48,1.38,10.22,3.18,20.44,9.93,28.65,6.48,7.87,8.75,8.13,15.11.09,8.65-10.95,9.85-24.29,10.8-38.26ZM1443.17,814.76c.06,16.43,19.83,37.92,36.68,39.41-8.71-12.64-10.4-27.09-11.64-41.56-4.38.98-8.28,2.3-12.26,2.63-4.14.34-8.36-.27-12.77-.48h-.01ZM1508.05,854.5c19.18-3.82,38.38-25.18,36.64-40.22-8.29,2.08-16.42,1.55-24.68-2.29-1.33,14.96-2.96,29.44-11.96,42.51h0Z"/>
    <path class="cls-1" d="M1338.43,812.22v11.75c0,10.37-.03,20.73.02,31.1.02,3.97,1.85,6.38,5.01,6.53,3.5.16,5.46-1.74,5.99-5.16.38-2.48,1.66-4.26,4.29-3.81,2.82.48,3.4,2.74,3.03,5.31-.93,6.5-7,11.53-13.53,11.17-6.7-.37-12.12-5.91-12.19-12.96-.14-13.18-.05-26.36-.06-39.55v-4.52c-5.85.4-10.81,2.15-15.13,5.47-2.27,1.74-4.12,2.01-6.49.15-8.1-6.36-17.02-6.94-26.45-3.41-5.79,2.16-7.51.91-7.34-5.23.64-22.24,17.84-43.39,40.75-49.9,4.65-1.32,9.45-2.12,13.54-3.83,1.67-1.5,3.28-4.05,5.03-4.16,1.44-.09,3.06,2.74,4.27,4.68,9.99,1.44,19.77,4.24,28.51,9.93,15.93,10.36,25.1,24.85,26.15,44.04.28,5.1-1.87,6.55-6.62,4.7-9.79-3.81-19.04-3.31-27.51,3.36-2.08,1.64-3.81,1.38-5.86-.12-5.07-3.72-9.18-5.16-15.43-5.58l.02.04ZM1316.4,808.22c12.37-5.02,24.32-4.94,36.66-.04-.31-3.66-.43-6.59-.82-9.48-1.38-10.22-3.18-20.44-9.93-28.65-6.48-7.87-8.75-8.13-15.11-.09-8.65,10.95-9.85,24.29-10.8,38.26ZM1385.59,805.56c-.06-16.43-19.83-37.92-36.68-39.41,8.71,12.64,10.4,27.09,11.64,41.56,4.38-.98,8.28-2.3,12.26-2.63,4.14-.34,8.36.27,12.77.48h.01ZM1320.71,765.82c-19.18,3.82-38.38,25.18-36.64,40.22,8.29-2.08,16.42-1.55,24.68,2.29,1.33-14.96,2.96-29.44,11.96-42.51Z"/>
    <path class="cls-1" d="M1171.69,808.11v-11.75c0-10.37.03-20.73-.02-31.1-.02-3.97-1.85-6.38-5.01-6.53-3.5-.16-5.46,1.74-5.99,5.16-.38,2.48-1.66,4.26-4.29,3.81-2.82-.48-3.4-2.74-3.03-5.31.93-6.5,7-11.53,13.53-11.17,6.7.37,12.12,5.91,12.19,12.96.14,13.18.05,26.36.06,39.55v4.52c5.85-.4,10.81-2.15,15.13-5.47,2.27-1.74,4.12-2.01,6.49-.15,8.1,6.36,17.02,6.94,26.45,3.41,5.79-2.16,7.51-.91,7.34,5.23-.64,22.24-17.84,43.39-40.75,49.9-4.65,1.32-9.45,2.12-13.54,3.83-1.67,1.5-3.28,4.05-5.03,4.16-1.44.09-3.06-2.74-4.27-4.68-9.99-1.44-19.77-4.24-28.51-9.93-15.93-10.36-25.1-24.85-26.15-44.04-.28-5.1,1.87-6.55,6.62-4.7,9.79,3.81,19.04,3.31,27.51-3.36,2.08-1.64,3.81-1.38,5.86.12,5.07,3.72,9.18,5.16,15.43,5.58l-.02-.04ZM1193.72,812.1c-12.37,5.02-24.32,4.94-36.66.04.31,3.66.43,6.59.82,9.48,1.38,10.22,3.18,20.44,9.93,28.65,6.48,7.87,8.75,8.13,15.11.09,8.65-10.95,9.85-24.29,10.8-38.26ZM1124.52,814.76c.06,16.43,19.83,37.92,36.68,39.41-8.71-12.64-10.4-27.09-11.64-41.56-4.38.98-8.28,2.3-12.26,2.63-4.14.34-8.36-.27-12.77-.48h-.01ZM1189.41,854.5c19.18-3.82,38.38-25.18,36.64-40.22-8.29,2.08-16.42,1.55-24.68-2.29-1.33,14.96-2.96,29.44-11.96,42.51h0Z"/>
    <path class="cls-1" d="M1657.07,812.22v11.75c0,10.37-.03,20.73.02,31.1.02,3.97,1.85,6.38,5.01,6.53,3.5.16,5.46-1.74,5.99-5.16.38-2.48,1.66-4.26,4.29-3.81,2.82.48,3.4,2.74,3.03,5.31-.93,6.5-7,11.53-13.53,11.17-6.7-.37-12.12-5.91-12.19-12.96-.14-13.18-.05-26.36-.06-39.55v-4.52c-5.85.4-10.81,2.15-15.13,5.47-2.27,1.74-4.12,2.01-6.49.15-8.1-6.36-17.02-6.94-26.45-3.41-5.79,2.16-7.51.91-7.34-5.23.64-22.24,17.84-43.39,40.75-49.9,4.65-1.32,9.45-2.12,13.54-3.83,1.67-1.5,3.28-4.05,5.03-4.16,1.44-.09,3.06,2.74,4.27,4.68,9.99,1.44,19.77,4.24,28.51,9.93,15.93,10.36,25.1,24.85,26.15,44.04.28,5.1-1.87,6.55-6.62,4.7-9.79-3.81-19.04-3.31-27.51,3.36-2.08,1.64-3.81,1.38-5.86-.12-5.07-3.72-9.18-5.16-15.43-5.58l.02.04ZM1635.04,808.22c12.37-5.02,24.32-4.94,36.66-.04-.31-3.66-.43-6.59-.82-9.48-1.38-10.22-3.18-20.44-9.93-28.65-6.48-7.87-8.75-8.13-15.11-.09-8.65,10.95-9.85,24.29-10.8,38.26ZM1704.24,805.56c-.06-16.43-19.83-37.92-36.68-39.41,8.71,12.64,10.4,27.09,11.64,41.56,4.38-.98,8.28-2.3,12.26-2.63,4.14-.34,8.36.27,12.77.48h.01ZM1639.35,765.82c-19.18,3.82-38.38,25.18-36.64,40.22,8.29-2.08,16.42-1.55,24.68,2.29,1.33-14.96,2.96-29.44,11.96-42.51Z"/>
    <path class="cls-1" d="M853.04,808.11v-11.75c0-10.37.03-20.73-.02-31.1-.02-3.97-1.85-6.38-5.01-6.53-3.5-.16-5.46,1.74-5.99,5.16-.38,2.48-1.66,4.26-4.29,3.81-2.82-.48-3.4-2.74-3.03-5.31.93-6.5,7-11.53,13.53-11.17,6.7.37,12.12,5.91,12.19,12.96.14,13.18.05,26.36.06,39.55v4.52c5.85-.4,10.81-2.15,15.13-5.47,2.27-1.74,4.12-2.01,6.49-.15,8.1,6.36,17.02,6.94,26.45,3.41,5.79-2.16,7.51-.91,7.34,5.23-.64,22.24-17.84,43.39-40.75,49.9-4.65,1.32-9.45,2.12-13.54,3.83-1.67,1.5-3.28,4.05-5.03,4.16-1.44.09-3.06-2.74-4.27-4.68-9.99-1.44-19.77-4.24-28.51-9.93-15.93-10.36-25.1-24.85-26.15-44.04-.28-5.1,1.87-6.55,6.62-4.7,9.79,3.81,19.04,3.31,27.51-3.36,2.08-1.64,3.81-1.38,5.86.12,5.07,3.72,9.18,5.16,15.43,5.58l-.02-.04ZM875.08,812.1c-12.37,5.02-24.32,4.94-36.66.04.31,3.66.43,6.59.82,9.48,1.38,10.22,3.18,20.44,9.93,28.65,6.48,7.87,8.75,8.13,15.11.09,8.65-10.95,9.85-24.29,10.8-38.26ZM805.88,814.76c.06,16.43,19.83,37.92,36.68,39.41-8.71-12.64-10.4-27.09-11.64-41.56-4.38.98-8.28,2.3-12.26,2.63-4.14.34-8.36-.27-12.77-.48h0ZM870.76,854.5c19.18-3.82,38.38-25.18,36.64-40.22-8.29,2.08-16.42,1.55-24.68-2.29-1.33,14.96-2.96,29.44-11.96,42.51h0Z"/>
    <path class="cls-1" d="M534.4,808.11v-11.75c0-10.37.03-20.73-.02-31.1-.02-3.97-1.85-6.38-5.01-6.53-3.5-.16-5.46,1.74-5.99,5.16-.38,2.48-1.66,4.26-4.29,3.81-2.82-.48-3.4-2.74-3.03-5.31.93-6.5,7-11.53,13.53-11.17,6.7.37,12.12,5.91,12.19,12.96.14,13.18.05,26.36.06,39.55v4.52c5.85-.4,10.81-2.15,15.13-5.47,2.27-1.74,4.12-2.01,6.49-.15,8.1,6.36,17.02,6.94,26.45,3.41,5.79-2.16,7.51-.91,7.34,5.23-.64,22.24-17.84,43.39-40.75,49.9-4.65,1.32-9.45,2.12-13.54,3.83-1.67,1.5-3.28,4.05-5.03,4.16-1.44.09-3.06-2.74-4.27-4.68-9.99-1.44-19.77-4.24-28.51-9.93-15.93-10.36-25.1-24.85-26.15-44.04-.28-5.1,1.87-6.55,6.62-4.7,9.79,3.81,19.04,3.31,27.51-3.36,2.08-1.64,3.81-1.38,5.86.12,5.07,3.72,9.18,5.16,15.43,5.58l-.02-.04ZM556.43,812.1c-12.37,5.02-24.32,4.94-36.66.04.31,3.66.43,6.59.82,9.48,1.38,10.22,3.18,20.44,9.93,28.65,6.48,7.87,8.75,8.13,15.11.09,8.65-10.95,9.85-24.29,10.8-38.26ZM487.24,814.76c.06,16.43,19.83,37.92,36.68,39.41-8.71-12.64-10.4-27.09-11.64-41.56-4.38.98-8.28,2.3-12.26,2.63-4.14.34-8.36-.27-12.77-.48h-.01ZM552.12,854.5c19.18-3.82,38.38-25.18,36.64-40.22-8.29,2.08-16.42,1.55-24.68-2.29-1.33,14.96-2.96,29.44-11.96,42.51h0Z"/>
    <path class="cls-1" d="M215.76,808.11v-11.75c0-10.37.03-20.73-.02-31.1-.02-3.97-1.85-6.38-5.01-6.53-3.5-.16-5.46,1.74-5.99,5.16-.38,2.48-1.66,4.26-4.29,3.81-2.82-.48-3.4-2.74-3.03-5.31.93-6.5,7-11.53,13.53-11.17,6.7.37,12.12,5.91,12.19,12.96.14,13.18.05,26.36.06,39.55v4.52c5.85-.4,10.81-2.15,15.13-5.47,2.27-1.74,4.12-2.01,6.49-.15,8.1,6.36,17.02,6.94,26.45,3.41,5.79-2.16,7.51-.91,7.34,5.23-.64,22.24-17.84,43.39-40.75,49.9-4.65,1.32-9.45,2.12-13.54,3.83-1.67,1.5-3.28,4.05-5.03,4.16-1.44.09-3.06-2.74-4.27-4.68-9.99-1.44-19.77-4.24-28.51-9.93-15.93-10.36-25.1-24.85-26.15-44.04-.28-5.1,1.87-6.55,6.62-4.7,9.79,3.81,19.04,3.31,27.51-3.36,2.08-1.64,3.81-1.38,5.86.12,5.07,3.72,9.18,5.16,15.43,5.58l-.02-.04ZM237.79,812.1c-12.37,5.02-24.32,4.94-36.66.04.31,3.66.43,6.59.82,9.48,1.38,10.22,3.18,20.44,9.93,28.65,6.48,7.87,8.75,8.13,15.11.09,8.65-10.95,9.85-24.29,10.8-38.26ZM168.6,814.76c.06,16.43,19.83,37.92,36.68,39.41-8.71-12.64-10.4-27.09-11.64-41.56-4.38.98-8.28,2.3-12.26,2.63-4.14.34-8.36-.27-12.77-.48h0ZM233.48,854.5c19.18-3.82,38.38-25.18,36.64-40.22-8.29,2.08-16.42,1.55-24.68-2.29-1.33,14.96-2.96,29.44-11.96,42.51h0Z"/>
    <path class="cls-1" d="M63.86,962.25v11.75c0,10.37-.03,20.73.02,31.1.02,3.97,1.85,6.38,5.01,6.53,3.5.16,5.46-1.74,5.99-5.16.38-2.48,1.66-4.26,4.29-3.81,2.82.48,3.4,2.74,3.03,5.31-.93,6.5-7,11.53-13.53,11.17-6.7-.37-12.12-5.91-12.19-12.96-.14-13.18-.05-26.36-.06-39.55v-4.52c-5.85.4-10.81,2.15-15.13,5.47-2.27,1.74-4.12,2.01-6.49.15-8.1-6.36-17.02-6.94-26.45-3.41-5.79,2.16-7.51.91-7.34-5.23.64-22.24,17.84-43.39,40.75-49.9,4.65-1.32,9.45-2.12,13.54-3.83,1.67-1.5,3.28-4.05,5.03-4.16,1.44-.09,3.06,2.74,4.27,4.68,9.99,1.44,19.77,4.24,28.51,9.93,15.93,10.36,25.1,24.85,26.15,44.04.28,5.1-1.87,6.55-6.62,4.7-9.79-3.81-19.04-3.31-27.51,3.36-2.08,1.64-3.81,1.38-5.86-.12-5.07-3.72-9.18-5.16-15.43-5.58l.02.04ZM41.83,958.26c12.37-5.02,24.32-4.94,36.66-.04-.31-3.66-.43-6.59-.82-9.48-1.38-10.22-3.18-20.44-9.93-28.65-6.48-7.87-8.75-8.13-15.11-.09-8.65,10.95-9.85,24.29-10.8,38.26ZM111.02,955.6c-.06-16.43-19.83-37.92-36.68-39.41,8.71,12.64,10.4,27.09,11.64,41.56,4.38-.98,8.28-2.3,12.26-2.63,4.14-.34,8.36.27,12.77.48h0ZM46.14,915.86c-19.18,3.82-38.38,25.18-36.64,40.22,8.29-2.08,16.42-1.55,24.68,2.29,1.33-14.96,2.96-29.44,11.96-42.51Z"/>
    <path class="cls-1" d="M382.5,962.25v11.75c0,10.37-.03,20.73.02,31.1.02,3.97,1.85,6.38,5.01,6.53,3.5.16,5.46-1.74,5.99-5.16.38-2.48,1.66-4.26,4.29-3.81,2.82.48,3.4,2.74,3.03,5.31-.93,6.5-7,11.53-13.53,11.17-6.7-.37-12.12-5.91-12.19-12.96-.14-13.18-.05-26.36-.06-39.55v-4.52c-5.85.4-10.81,2.15-15.13,5.47-2.27,1.74-4.12,2.01-6.49.15-8.1-6.36-17.02-6.94-26.45-3.41-5.79,2.16-7.51.91-7.34-5.23.64-22.24,17.84-43.39,40.75-49.9,4.65-1.32,9.45-2.12,13.54-3.83,1.67-1.5,3.28-4.05,5.03-4.16,1.44-.09,3.06,2.74,4.27,4.68,9.99,1.44,19.77,4.24,28.51,9.93,15.93,10.36,25.1,24.85,26.15,44.04.28,5.1-1.87,6.55-6.62,4.7-9.79-3.81-19.04-3.31-27.51,3.36-2.08,1.64-3.81,1.38-5.86-.12-5.07-3.72-9.18-5.16-15.43-5.58l.02.04ZM360.47,958.26c12.37-5.02,24.32-4.94,36.66-.04-.31-3.66-.43-6.59-.82-9.48-1.38-10.22-3.18-20.44-9.93-28.65-6.48-7.87-8.75-8.13-15.11-.09-8.65,10.95-9.85,24.29-10.8,38.26h0ZM429.66,955.6c-.06-16.43-19.83-37.92-36.68-39.41,8.71,12.64,10.4,27.09,11.64,41.56,4.38-.98,8.28-2.3,12.26-2.63,4.14-.34,8.36.27,12.77.48h0ZM364.78,915.86c-19.18,3.82-38.38,25.18-36.64,40.22,8.29-2.08,16.42-1.55,24.68,2.29,1.33-14.96,2.96-29.44,11.96-42.51Z"/>
    <path class="cls-1" d="M701.15,962.25v11.75c0,10.37-.03,20.73.02,31.1.02,3.97,1.85,6.38,5.01,6.53,3.5.16,5.46-1.74,5.99-5.16.38-2.48,1.66-4.26,4.29-3.81,2.82.48,3.4,2.74,3.03,5.31-.93,6.5-7,11.53-13.53,11.17-6.7-.37-12.12-5.91-12.19-12.96-.14-13.18-.05-26.36-.06-39.55v-4.52c-5.85.4-10.81,2.15-15.13,5.47-2.27,1.74-4.12,2.01-6.49.15-8.1-6.36-17.02-6.94-26.45-3.41-5.79,2.16-7.51.91-7.34-5.23.64-22.24,17.84-43.39,40.75-49.9,4.65-1.32,9.45-2.12,13.54-3.83,1.67-1.5,3.28-4.05,5.03-4.16,1.44-.09,3.06,2.74,4.27,4.68,9.99,1.44,19.77,4.24,28.51,9.93,15.93,10.36,25.1,24.85,26.15,44.04.28,5.1-1.87,6.55-6.62,4.7-9.79-3.81-19.04-3.31-27.51,3.36-2.08,1.64-3.81,1.38-5.86-.12-5.07-3.72-9.18-5.16-15.43-5.58l.02.04ZM679.11,958.26c12.37-5.02,24.32-4.94,36.66-.04-.31-3.66-.43-6.59-.82-9.48-1.38-10.22-3.18-20.44-9.93-28.65-6.48-7.87-8.75-8.13-15.11-.09-8.65,10.95-9.85,24.29-10.8,38.26ZM748.31,955.6c-.06-16.43-19.83-37.92-36.68-39.41,8.71,12.64,10.4,27.09,11.64,41.56,4.38-.98,8.28-2.3,12.26-2.63,4.14-.34,8.36.27,12.77.48h0ZM683.42,915.86c-19.18,3.82-38.38,25.18-36.64,40.22,8.29-2.08,16.42-1.55,24.68,2.29,1.33-14.96,2.96-29.44,11.96-42.51Z"/>
    <path class="cls-1" d="M1808.97,958.14v-11.75c0-10.37.03-20.73-.02-31.1-.02-3.97-1.85-6.38-5.01-6.53-3.5-.16-5.46,1.74-5.99,5.16-.38,2.48-1.66,4.26-4.29,3.81-2.82-.48-3.4-2.74-3.03-5.31.93-6.5,7-11.53,13.53-11.17,6.7.37,12.12,5.91,12.19,12.96.14,13.18.05,26.36.06,39.55v4.52c5.85-.4,10.81-2.15,15.13-5.47,2.27-1.74,4.12-2.01,6.49-.15,8.1,6.36,17.02,6.94,26.45,3.41,5.79-2.16,7.51-.91,7.34,5.23-.64,22.24-17.84,43.39-40.75,49.9-4.65,1.32-9.45,2.12-13.54,3.83-1.67,1.5-3.28,4.05-5.03,4.16-1.44.09-3.06-2.74-4.27-4.68-9.99-1.44-19.77-4.24-28.51-9.93-15.93-10.36-25.1-24.85-26.15-44.04-.28-5.1,1.87-6.55,6.62-4.7,9.79,3.81,19.04,3.31,27.51-3.36,2.08-1.64,3.81-1.38,5.86.12,5.07,3.72,9.18,5.16,15.43,5.58l-.02-.04ZM1831.01,962.13c-12.37,5.02-24.32,4.94-36.66.04.31,3.66.43,6.59.82,9.48,1.38,10.22,3.18,20.44,9.93,28.65,6.48,7.87,8.75,8.13,15.11.09,8.65-10.95,9.85-24.29,10.8-38.26h0ZM1761.81,964.79c.06,16.43,19.83,37.92,36.68,39.41-8.71-12.64-10.4-27.09-11.64-41.56-4.38.98-8.28,2.3-12.26,2.63-4.14.34-8.36-.27-12.77-.48h-.01ZM1826.69,1004.53c19.18-3.82,38.38-25.18,36.64-40.22-8.29,2.08-16.42,1.55-24.68-2.29-1.33,14.96-2.96,29.44-11.96,42.51Z"/>
    <path class="cls-1" d="M1019.79,962.25v11.75c0,10.37-.03,20.73.02,31.1.02,3.97,1.85,6.38,5.01,6.53,3.5.16,5.46-1.74,5.99-5.16.38-2.48,1.66-4.26,4.29-3.81,2.82.48,3.4,2.74,3.03,5.31-.93,6.5-7,11.53-13.53,11.17-6.7-.37-12.12-5.91-12.19-12.96-.14-13.18-.05-26.36-.06-39.55v-4.52c-5.85.4-10.81,2.15-15.13,5.47-2.27,1.74-4.12,2.01-6.49.15-8.1-6.36-17.02-6.94-26.45-3.41-5.79,2.16-7.51.91-7.34-5.23.64-22.24,17.84-43.39,40.75-49.9,4.65-1.32,9.45-2.12,13.54-3.83,1.67-1.5,3.28-4.05,5.03-4.16,1.44-.09,3.06,2.74,4.27,4.68,9.99,1.44,19.77,4.24,28.51,9.93,15.93,10.36,25.1,24.85,26.15,44.04.28,5.1-1.87,6.55-6.62,4.7-9.79-3.81-19.04-3.31-27.51,3.36-2.08,1.64-3.81,1.38-5.86-.12-5.07-3.72-9.18-5.16-15.43-5.58l.02.04ZM997.75,958.26c12.37-5.02,24.32-4.94,36.66-.04-.31-3.66-.43-6.59-.82-9.48-1.38-10.22-3.18-20.44-9.93-28.65-6.48-7.87-8.75-8.13-15.11-.09-8.65,10.95-9.85,24.29-10.8,38.26h0ZM1066.95,955.6c-.06-16.43-19.83-37.92-36.68-39.41,8.71,12.64,10.4,27.09,11.64,41.56,4.38-.98,8.28-2.3,12.26-2.63,4.14-.34,8.36.27,12.77.48h.01ZM1002.07,915.86c-19.18,3.82-38.38,25.18-36.64,40.22,8.29-2.08,16.42-1.55,24.68,2.29,1.33-14.96,2.96-29.44,11.96-42.51Z"/>
    <path class="cls-1" d="M1490.33,958.14v-11.75c0-10.37.03-20.73-.02-31.1-.02-3.97-1.85-6.38-5.01-6.53-3.5-.16-5.46,1.74-5.99,5.16-.38,2.48-1.66,4.26-4.29,3.81-2.82-.48-3.4-2.74-3.03-5.31.93-6.5,7-11.53,13.53-11.17,6.7.37,12.12,5.91,12.19,12.96.14,13.18.05,26.36.06,39.55v4.52c5.85-.4,10.81-2.15,15.13-5.47,2.27-1.74,4.12-2.01,6.49-.15,8.1,6.36,17.02,6.94,26.45,3.41,5.79-2.16,7.51-.91,7.34,5.23-.64,22.24-17.84,43.39-40.75,49.9-4.65,1.32-9.45,2.12-13.54,3.83-1.67,1.5-3.28,4.05-5.03,4.16-1.44.09-3.06-2.74-4.27-4.68-9.99-1.44-19.77-4.24-28.51-9.93-15.93-10.36-25.1-24.85-26.15-44.04-.28-5.1,1.87-6.55,6.62-4.7,9.79,3.81,19.04,3.31,27.51-3.36,2.08-1.64,3.81-1.38,5.86.12,5.07,3.72,9.18,5.16,15.43,5.58l-.02-.04ZM1512.36,962.13c-12.37,5.02-24.32,4.94-36.66.04.31,3.66.43,6.59.82,9.48,1.38,10.22,3.18,20.44,9.93,28.65,6.48,7.87,8.75,8.13,15.11.09,8.65-10.95,9.85-24.29,10.8-38.26h0ZM1443.17,964.79c.06,16.43,19.83,37.92,36.68,39.41-8.71-12.64-10.4-27.09-11.64-41.56-4.38.98-8.28,2.3-12.26,2.63-4.14.34-8.36-.27-12.77-.48h-.01ZM1508.05,1004.53c19.18-3.82,38.38-25.18,36.64-40.22-8.29,2.08-16.42,1.55-24.68-2.29-1.33,14.96-2.96,29.44-11.96,42.51Z"/>
    <path class="cls-1" d="M1338.43,962.25v11.75c0,10.37-.03,20.73.02,31.1.02,3.97,1.85,6.38,5.01,6.53,3.5.16,5.46-1.74,5.99-5.16.38-2.48,1.66-4.26,4.29-3.81,2.82.48,3.4,2.74,3.03,5.31-.93,6.5-7,11.53-13.53,11.17-6.7-.37-12.12-5.91-12.19-12.96-.14-13.18-.05-26.36-.06-39.55v-4.52c-5.85.4-10.81,2.15-15.13,5.47-2.27,1.74-4.12,2.01-6.49.15-8.1-6.36-17.02-6.94-26.45-3.41-5.79,2.16-7.51.91-7.34-5.23.64-22.24,17.84-43.39,40.75-49.9,4.65-1.32,9.45-2.12,13.54-3.83,1.67-1.5,3.28-4.05,5.03-4.16,1.44-.09,3.06,2.74,4.27,4.68,9.99,1.44,19.77,4.24,28.51,9.93,15.93,10.36,25.1,24.85,26.15,44.04.28,5.1-1.87,6.55-6.62,4.7-9.79-3.81-19.04-3.31-27.51,3.36-2.08,1.64-3.81,1.38-5.86-.12-5.07-3.72-9.18-5.16-15.43-5.58l.02.04ZM1316.4,958.26c12.37-5.02,24.32-4.94,36.66-.04-.31-3.66-.43-6.59-.82-9.48-1.38-10.22-3.18-20.44-9.93-28.65-6.48-7.87-8.75-8.13-15.11-.09-8.65,10.95-9.85,24.29-10.8,38.26ZM1385.59,955.6c-.06-16.43-19.83-37.92-36.68-39.41,8.71,12.64,10.4,27.09,11.64,41.56,4.38-.98,8.28-2.3,12.26-2.63,4.14-.34,8.36.27,12.77.48h.01ZM1320.71,915.86c-19.18,3.82-38.38,25.18-36.64,40.22,8.29-2.08,16.42-1.55,24.68,2.29,1.33-14.96,2.96-29.44,11.96-42.51Z"/>
    <path class="cls-1" d="M1171.69,958.14v-11.75c0-10.37.03-20.73-.02-31.1-.02-3.97-1.85-6.38-5.01-6.53-3.5-.16-5.46,1.74-5.99,5.16-.38,2.48-1.66,4.26-4.29,3.81-2.82-.48-3.4-2.74-3.03-5.31.93-6.5,7-11.53,13.53-11.17,6.7.37,12.12,5.91,12.19,12.96.14,13.18.05,26.36.06,39.55v4.52c5.85-.4,10.81-2.15,15.13-5.47,2.27-1.74,4.12-2.01,6.49-.15,8.1,6.36,17.02,6.94,26.45,3.41,5.79-2.16,7.51-.91,7.34,5.23-.64,22.24-17.84,43.39-40.75,49.9-4.65,1.32-9.45,2.12-13.54,3.83-1.67,1.5-3.28,4.05-5.03,4.16-1.44.09-3.06-2.74-4.27-4.68-9.99-1.44-19.77-4.24-28.51-9.93-15.93-10.36-25.1-24.85-26.15-44.04-.28-5.1,1.87-6.55,6.62-4.7,9.79,3.81,19.04,3.31,27.51-3.36,2.08-1.64,3.81-1.38,5.86.12,5.07,3.72,9.18,5.16,15.43,5.58l-.02-.04ZM1193.72,962.13c-12.37,5.02-24.32,4.94-36.66.04.31,3.66.43,6.59.82,9.48,1.38,10.22,3.18,20.44,9.93,28.65,6.48,7.87,8.75,8.13,15.11.09,8.65-10.95,9.85-24.29,10.8-38.26h0ZM1124.52,964.79c.06,16.43,19.83,37.92,36.68,39.41-8.71-12.64-10.4-27.09-11.64-41.56-4.38.98-8.28,2.3-12.26,2.63-4.14.34-8.36-.27-12.77-.48h-.01ZM1189.41,1004.53c19.18-3.82,38.38-25.18,36.64-40.22-8.29,2.08-16.42,1.55-24.68-2.29-1.33,14.96-2.96,29.44-11.96,42.51Z"/>
    <path class="cls-1" d="M1657.07,962.25v11.75c0,10.37-.03,20.73.02,31.1.02,3.97,1.85,6.38,5.01,6.53,3.5.16,5.46-1.74,5.99-5.16.38-2.48,1.66-4.26,4.29-3.81,2.82.48,3.4,2.74,3.03,5.31-.93,6.5-7,11.53-13.53,11.17-6.7-.37-12.12-5.91-12.19-12.96-.14-13.18-.05-26.36-.06-39.55v-4.52c-5.85.4-10.81,2.15-15.13,5.47-2.27,1.74-4.12,2.01-6.49.15-8.1-6.36-17.02-6.94-26.45-3.41-5.79,2.16-7.51.91-7.34-5.23.64-22.24,17.84-43.39,40.75-49.9,4.65-1.32,9.45-2.12,13.54-3.83,1.67-1.5,3.28-4.05,5.03-4.16,1.44-.09,3.06,2.74,4.27,4.68,9.99,1.44,19.77,4.24,28.51,9.93,15.93,10.36,25.1,24.85,26.15,44.04.28,5.1-1.87,6.55-6.62,4.7-9.79-3.81-19.04-3.31-27.51,3.36-2.08,1.64-3.81,1.38-5.86-.12-5.07-3.72-9.18-5.16-15.43-5.58l.02.04ZM1635.04,958.26c12.37-5.02,24.32-4.94,36.66-.04-.31-3.66-.43-6.59-.82-9.48-1.38-10.22-3.18-20.44-9.93-28.65-6.48-7.87-8.75-8.13-15.11-.09-8.65,10.95-9.85,24.29-10.8,38.26ZM1704.24,955.6c-.06-16.43-19.83-37.92-36.68-39.41,8.71,12.64,10.4,27.09,11.64,41.56,4.38-.98,8.28-2.3,12.26-2.63,4.14-.34,8.36.27,12.77.48h.01ZM1639.35,915.86c-19.18,3.82-38.38,25.18-36.64,40.22,8.29-2.08,16.42-1.55,24.68,2.29,1.33-14.96,2.96-29.44,11.96-42.51Z"/>
    <path class="cls-1" d="M853.04,958.14v-11.75c0-10.37.03-20.73-.02-31.1-.02-3.97-1.85-6.38-5.01-6.53-3.5-.16-5.46,1.74-5.99,5.16-.38,2.48-1.66,4.26-4.29,3.81-2.82-.48-3.4-2.74-3.03-5.31.93-6.5,7-11.53,13.53-11.17,6.7.37,12.12,5.91,12.19,12.96.14,13.18.05,26.36.06,39.55v4.52c5.85-.4,10.81-2.15,15.13-5.47,2.27-1.74,4.12-2.01,6.49-.15,8.1,6.36,17.02,6.94,26.45,3.41,5.79-2.16,7.51-.91,7.34,5.23-.64,22.24-17.84,43.39-40.75,49.9-4.65,1.32-9.45,2.12-13.54,3.83-1.67,1.5-3.28,4.05-5.03,4.16-1.44.09-3.06-2.74-4.27-4.68-9.99-1.44-19.77-4.24-28.51-9.93-15.93-10.36-25.1-24.85-26.15-44.04-.28-5.1,1.87-6.55,6.62-4.7,9.79,3.81,19.04,3.31,27.51-3.36,2.08-1.64,3.81-1.38,5.86.12,5.07,3.72,9.18,5.16,15.43,5.58l-.02-.04ZM875.08,962.13c-12.37,5.02-24.32,4.94-36.66.04.31,3.66.43,6.59.82,9.48,1.38,10.22,3.18,20.44,9.93,28.65,6.48,7.87,8.75,8.13,15.11.09,8.65-10.95,9.85-24.29,10.8-38.26h0ZM805.88,964.79c.06,16.43,19.83,37.92,36.68,39.41-8.71-12.64-10.4-27.09-11.64-41.56-4.38.98-8.28,2.3-12.26,2.63-4.14.34-8.36-.27-12.77-.48h0ZM870.76,1004.53c19.18-3.82,38.38-25.18,36.64-40.22-8.29,2.08-16.42,1.55-24.68-2.29-1.33,14.96-2.96,29.44-11.96,42.51Z"/>
    <path class="cls-1" d="M534.4,958.14v-11.75c0-10.37.03-20.73-.02-31.1-.02-3.97-1.85-6.38-5.01-6.53-3.5-.16-5.46,1.74-5.99,5.16-.38,2.48-1.66,4.26-4.29,3.81-2.82-.48-3.4-2.74-3.03-5.31.93-6.5,7-11.53,13.53-11.17,6.7.37,12.12,5.91,12.19,12.96.14,13.18.05,26.36.06,39.55v4.52c5.85-.4,10.81-2.15,15.13-5.47,2.27-1.74,4.12-2.01,6.49-.15,8.1,6.36,17.02,6.94,26.45,3.41,5.79-2.16,7.51-.91,7.34,5.23-.64,22.24-17.84,43.39-40.75,49.9-4.65,1.32-9.45,2.12-13.54,3.83-1.67,1.5-3.28,4.05-5.03,4.16-1.44.09-3.06-2.74-4.27-4.68-9.99-1.44-19.77-4.24-28.51-9.93-15.93-10.36-25.1-24.85-26.15-44.04-.28-5.1,1.87-6.55,6.62-4.7,9.79,3.81,19.04,3.31,27.51-3.36,2.08-1.64,3.81-1.38,5.86.12,5.07,3.72,9.18,5.16,15.43,5.58l-.02-.04ZM556.43,962.13c-12.37,5.02-24.32,4.94-36.66.04.31,3.66.43,6.59.82,9.48,1.38,10.22,3.18,20.44,9.93,28.65,6.48,7.87,8.75,8.13,15.11.09,8.65-10.95,9.85-24.29,10.8-38.26h0ZM487.24,964.79c.06,16.43,19.83,37.92,36.68,39.41-8.71-12.64-10.4-27.09-11.64-41.56-4.38.98-8.28,2.3-12.26,2.63-4.14.34-8.36-.27-12.77-.48h-.01ZM552.12,1004.53c19.18-3.82,38.38-25.18,36.64-40.22-8.29,2.08-16.42,1.55-24.68-2.29-1.33,14.96-2.96,29.44-11.96,42.51Z"/>
    <path class="cls-1" d="M215.76,958.14v-11.75c0-10.37.03-20.73-.02-31.1-.02-3.97-1.85-6.38-5.01-6.53-3.5-.16-5.46,1.74-5.99,5.16-.38,2.48-1.66,4.26-4.29,3.81-2.82-.48-3.4-2.74-3.03-5.31.93-6.5,7-11.53,13.53-11.17,6.7.37,12.12,5.91,12.19,12.96.14,13.18.05,26.36.06,39.55v4.52c5.85-.4,10.81-2.15,15.13-5.47,2.27-1.74,4.12-2.01,6.49-.15,8.1,6.36,17.02,6.94,26.45,3.41,5.79-2.16,7.51-.91,7.34,5.23-.64,22.24-17.84,43.39-40.75,49.9-4.65,1.32-9.45,2.12-13.54,3.83-1.67,1.5-3.28,4.05-5.03,4.16-1.44.09-3.06-2.74-4.27-4.68-9.99-1.44-19.77-4.24-28.51-9.93-15.93-10.36-25.1-24.85-26.15-44.04-.28-5.1,1.87-6.55,6.62-4.7,9.79,3.81,19.04,3.31,27.51-3.36,2.08-1.64,3.81-1.38,5.86.12,5.07,3.72,9.18,5.16,15.43,5.58l-.02-.04ZM237.79,962.13c-12.37,5.02-24.32,4.94-36.66.04.31,3.66.43,6.59.82,9.48,1.38,10.22,3.18,20.44,9.93,28.65,6.48,7.87,8.75,8.13,15.11.09,8.65-10.95,9.85-24.29,10.8-38.26h0ZM168.6,964.79c.06,16.43,19.83,37.92,36.68,39.41-8.71-12.64-10.4-27.09-11.64-41.56-4.38.98-8.28,2.3-12.26,2.63-4.14.34-8.36-.27-12.77-.48h0ZM233.48,1004.53c19.18-3.82,38.38-25.18,36.64-40.22-8.29,2.08-16.42,1.55-24.68-2.29-1.33,14.96-2.96,29.44-11.96,42.51Z"/>
  </g>
</svg>